<mxfile host="app.diagrams.net" modified="2024-01-01T00:00:00.000Z" agent="AWS Architecture Diagram Generator" version="22.1.11" etag="generated" type="device">
  <diagram name="kinesis_data_streaming_with_ecs_99" id="generated-diagram">
    <mxGraphModel dx="1422" dy="794" grid="1" gridSize="10" guides="1" tooltips="1" connect="1" arrows="1" fold="1" page="1" pageScale="1" pageWidth="827" pageHeight="1169" math="0" shadow="0">
      <root>
        <mxCell id="0" />
        <mxCell id="1" parent="0" />
        <mxCell id="2" value="" style="image;html=1;image=data:image/png;base64,iVBORw0KGgoAAAANSUhEUgAAA84AAAKiCAYAAAAHVIXNAAAABmJLR0QA/wD/AP+gvaeTAAAgAElEQVR4nOzdd2AkZf3H8c9sSTY9l3I113vlaEc97igC0tvRRURQFFSw4A8sFFEREQEpUpUmAiIgIu3oHQ6ucL2XXHpvm2TL/P5IbrNldrJpl1zu/foDbmeeeea7s7PzzCezO2uYpmkKAAAAAABY2ezo7woAAAAAABjICM4AAAAAANggOAMAAAAAYIPgDAAAAACADYIzAAAAAAA2CM4AAAAAANggOAMAAAAAYIPgDAAAAACADYIzAAAAAAA2CM4AAAAAANggOAMAAAAAYIPgDAAAAACADYIzAAAAAAA2CM4AAAAAANggOAMAAAAAYIPgDAAAAACADYIzAAAAAAA2CM4AAAAAANggOAMAAAAAYIPgDAAAAACADYIzAAAAAAA2CM4AAAAAANggOAMAAAAAYIPgDAAAAACADYIzAAAAAAA2CM4AAAAAANggOAMAAAAAYIPgDAAAAACADYIzAAAAAAA2CM4AAAAAANggOAMAAAAAYIPgDAAAAACADYIzAAAAAAA2CM4AAAAAANggOAMAAAAAYIPgDAAAAACADYIzAAAAAAA2CM4AAAAAANggOAMAAAAAYIPgDAAAAACADYIzAAAAAAA2CM4AAAAAANggOAMAAAAAYIPgDAAAAACADYIzAAAAAAA2CM4AAAAAANggOAMAAAAAYIPgDAAAAACADYIzAAAAAAA2CM4AAAAAANggOAMAAAAAYIPgDAAAAACADYIzAAAAAAA2CM4AAAAAANggOAMAAAAAYIPgDAAAAACADYIzAAAAAAA2CM4AAAAAANggOAMAAAAAYIPgDAAAAACADYIzAAAAAAA2CM4AAAAAANggOAMAAAAAYIPgDAAAAACADYIzAAAAAAA2CM4AAAAAANggOAMAAAAAYIPgDAAAAACADYIzAAAAAAA2CM4AAAAAANggOAMAAAAAYIPgDAAAAACADYIzAAAAAAA2CM4AAAAAANggOAMAAAAAYIPgDAAAAACADYIzAAAAAAA2CM4AAAAAANggOAMAAAAAYIPgDAAAAACADYIzAAAAAAA2CM4AAAAAANggOAMAAAAAYIPgDAAAAACADYIzAAAAAAA2CM4AAAAAANggOAMAAAAAYIPgDAAAAACADYIzAAAAAAA2CM4AAAAAANggOAMAAAAAYIPgDAAAAACADYIzAAAAAAA2CM4AAAAAANggOAMAAAAAYIPgDAAAAACADYIzAAAAAAA2CM4AAAAAANggOAMAAAAAYIPgDAAAAACADYIzAAAAAAA2CM4AAAAAANggOAMAAAAAYIPgDAAAAACADYIzAAAAAAA2CM4AAAAAANggOAMAAAAAYIPgDAAAAACADYIzAAAAAAA2CM4AAAAAANggOAMAAAAAYIPgDAAAAACADYIzAAAAAAA2CM4AAAAAANggOAMAAAAAYIPgDAAAAACADYIzAAAAAAA2CM4AAAAAANggOAMAAAAAYIPgDAAAAACADYIzAAAAAAA2CM4AAAAAANggOAMAAAAAYIPgDAAAAACADYIzAAAAAAA2CM4AAAAAANggOAMAAAAAYIPgDAAAAACADYIzAAAAAAA2CM4AAAAAANggOAMAAAAAYIPgDAAAAACADYIzAAAAAAA2CM4AAAAAANggOAMAAAAAYIPgDAAAAACADYIzAAAAAAA2CM4AAAAAANggOAMAAAAAYIPgDAAAAACADYIzAAAAAAA2CM4AAAAAANggOAMAAAAAYIPgDAAAAACADYIzAAAAAAA2CM4AAAAAANggOAMAAAAAYIPgDAAAAACADYIzAAAAAAA2CM4AAAAAANggOAMAAAAAYIPgDAAAAACADYIzAAAAAAA2CM4AAAAAANggOAMAAAAAYIPgDAAAAACADYIzAAAAAAA2CM4AAAAAANggOAMAAAAAYIPgDAAAAACADYIzAAAAAAA2CM4AAAAAANggOAMAAAAAYIPgDAAAAACADYIzAAAAAAA2CM4AAAAAANggOAMAAAAAYIPgDAAAAACADYIzAAAAAAA2CM4AAAAAANggOAMAAAAAYIPgDAAAAACADYIzAAAAAAA2CM4AAAAAANggOAMAAAAAYIPgDAAAAACADYIzAAAAAAA2CM4AAAAAANggOAMAAAAAYIPgDAAAAACADYIzAAAAAAA2CM4AAAAAANggOAMAAAAAYIPgDAAAAACADYIzAAAAAAA2CM4AAAAAANggOAMAAAAAYIPgDAAAAACADYIzAAAAAAA2CM4AAAAAANggOAMAAAAAYIPgDAAAAACADYIzAAAAAAA2CM4AAAAAANggOAMAAAAAYIPgDAAAAACADYIzAAAAAAA2CM4AAAAAANggOAMAAAAAYIPgDAAAAACADYIzAAAAAAA2XP1dADDYBAJBlVZUqrS8SjV19WpqapbP75dpmv1dGnYjt9ul1JQUZWema1hejoYNzZXL6ezvsga0mroGlZRVqLK6VnUNjfL5fAoEgv1dFnYjp9OppCS3sjLSlJeTrRFD85SeltrfZQ1orT6fiksrVF5ZrZq6BjW3tMjn8/d3WdiNDMOQ2+1SWlqqcjIzNGxorobmDpFhGP1dGjCoGCZn80Cv8Pn9Wr9pm7bsKJLfH1B6RqbSsjKU4kmR0+UW49dexJT8fp+avc1qqK9XQ12tnE6nxo4armmTxikpyd3fFQ4oRaXlWrtxm2rr6pWcnKyM7GylpqfL7XbL4eCDUXuTYDCo1tZWNTbUq666Rn6fT7k52ZoxebzycrL7u7wBpcnbrDUbtqiwuEySlJmVpdSMDCV7PHK5uC6yNwmapgI+v7zeRjXU1qmxoUHJycmaNK5AE8cVyMlxFOgNmwnOQA+ZpqntO0u0at1mBU1TwwsKlD98uNxJSf1dGgYIv9+niuJSFRcWyjQDmj55vCaMGbXXXw2oa2jU8tUbVFFZrdyh+Ro+cpTSs7L6uywMEKZpqramRqU7dqimulqjRgzVrKkTlZri6e/S+lUgEND6zdu1Yct2JSV7NGL0aOXm58vBJ1rQrqW5WWVFxSop2ilPcpLmTJukEcPy+rssYE9HcAZ6wufz67Nlq1ReWa1hI0eqYNw4OflLP+IIBAIq2rZdJTsLlZ2VoYP3m6XkvfQPLFu279Ty1RuUlp6hsZMmKj0zs79LwgBWU1Wl7Zs2ydfSogP2mbHXhoCGxiZ9/MVXam5p1agxYzWsgD/AIb7Wlhbt2LxZFWVlGjNquPadNZVP8QDdR3AGuquxyauPl6xQqz+gybNmKi09o79Lwh7C29Sk9StXypCpQ/efo8yMtP4uabcxTVNfrdmoTdsKNXr8eI0YPZoTfyTEDAa1deNGlZeUaObUCZo8fkx/l7RblVdW67Olq5SUkqIpM2fyqSYkrKa6WptWr1ZWRpoO2m+2kvm6ENAdBGegOxqbvHr34y/kTvZoyqyZcicl93dJ2MP4/T5tWLVa3oYGzT94X2VlpPd3SbvF58tWq6isXBOnTlNOfn5/l4M9UHFhoXZs3qzJE8Zo5pQJ/V3OblFaUaVPlqzQkPw8TZgyTQ4nVw3RNd6mRq1fuUouh6EFh+ynJDfhGeiizRx5gS7y+fz6eMkKuZM9mr7PPoRmdIvL5da02bOVkp6mT9o/ejnYrdmwRUUlZZo6azahGd02oqBAE6ZO1fpN27R9Z0l/l9Pn6hoa9fnSVcodOlSTps8gNKNbUlLTNH3uXPkCQX365UoFg/xiAdBVHH2BLjBNU58tXalWf0BTZs3kZizoEcPh0OSZM2UaDn3y5VeD+kSmsLhMazdu1bgpU5SZzd2R0TN5w4Zp1JgxWrpynSqra/u7nD7T6vPpoyUr5ElL1/gpU/q7HOzhkpKSNHXWLFXXNWj56vX9XQ6wxyE4A12wfWeJyqtqNJmPZ6OXuFxuTZk5U7X1Ddq0rbC/y+kTPp9fy1ev17BRI5U/fHh/l4NBomD8eGVlZ2vpynUKDtJvna1ev0WBgKkpM2fI4KZO6AUpaWmaOHWatu4oVnlldX+XA+xRuP0vkCC/36/V6zdr+KhRnd4IbN3a1Xr4vrtDj5OTPRo9bpymTJmuI446ut/uallZUa6X//OCtm/bIl9rq4YOG679DzxYBx58iJx70NXzjevXaeWK5TrtrLP7u5Re4UlN1YiC0Vq7catGjxwuT/LguunP6g1bZMrQ6PHjO217959v0/atmyW1XZEfMWKkDjj4UB1+xMI+rrJvmKapfz/zlPY/8CCNmzCxv8sZdMZOnqwVS5Zo87ZCTRo3ur/L6VW1dQ3auqNIE6ZNkyuB76MOluM7+t6QvFxl5+Zq+eoNOvrwA7lBI5Ag/nwJJGjdpm0KBE2NGju207YNdfVasWypDp2/UAuPPlaz5+6rmsoq3XHb7/WTKy9XSXHRbqg40qqvlutb5y/Slk0bNHXaDM2aM1d+n19PPfa3PW7QfOXl/+iBe+5Uk7epv0vpNSNHj5bT5daaDVv6u5Re1dDYpC3bd2r0+PFyOjv/W+3GDevkdLq08OhjdchhR6i1pVW//fV1uuu2W3ZDtb2vpqZaD977Fy1+7ZX+LmVQSvZ4NHxUgdZu3Cqfz9/f5fSqFWs3Kj0jU3lDh3badjAd37F7jJs4UY1NXm0rLO7vUoA9BlecgQQEAkFt2VGk4QWju/Q7zcefeLI8KSmhx0WFO3T9tdfott//RrfddV9CfZSWlOib55yuh574pwpGdx7a47nvrj/r2K+fpCuv/mmfr6uvfed7P9BZZ5+n1JTU/i6l1zicTo0cPVrbN2/SrKkT5XYPjsPz5m07lezxKG/YsISXmThpsk445bTQ45lz9tFfbr9Vxxx/gmbMmtMXZfaZIUNy9MiTzyhvaOLPH10zckyBSosKtX1niSaOK+jvcnpFXX2jKiqrNW1OYvv7YDq+Y/dITklR3rCh2ri1UONGj+zvcoA9AlecgQSUVlTK7w/0+PuZIwtG68qrf6qVy5fpo/ff66XqOmeaprZu2awJkybvtnX2pWSPRyNGDY4T5HC5w4bJlFRUWt7fpfQK0zS1o7hMecOH9+iq19dPPlVp6RlavfKrXqxu9xlZMFpJ/OZun3E6XcrJy9f24tL+LqXXFBaXKtnjUdaQIZ22HWzHd+w+Q4ePUH1Do2rrG/q7FGCPMDguaQB9rLS8SukZmXL3wsnvPvvtr5EFo7V29UodOv8IlZaU6M3X/qctWzbJ19qqSVOm6fSzzlZaeoZKS4p1zY+ukCRd88MrVDBmjL5zxY80acpU2+WiGYahUaNG63//eV6HH7FAmVmxdzW2W9dH77+nzRvX65D5R+j1//1XleXluvraXyotNU11dbV64V/PaNOG9crJydUJp5ymyVOntfdpX+NH77+nnYXbNW78RH3y0fuqqqzQnLn765QzztKmjev1zptvaOeO7Zo4earOOu+C0BXmj95/Tx++/45+dt2vI/qZMHGyPvrwPVWWl2nWnLk69YxFEa9ZY0O9nn/2aW3auF4Fo8dq/oKFevThB3TTLX/q0icJ+orT6VRWVrZKy6s0tmBEf5fTYzV1DWptbdWQ3Nwe9eNwOJQ/dKgaGxslSTf+4hpd9r0f6vNPP9aKpV/okMOP0DHHnyCp7SOr77z5hspKSzVu/ASdeuYi5eTmRfS3fs0qvbX4de3csUNDhw/XcSeerClTp0uSPv3oA330/ruqr6/TzNn76JTTzwrtQyXFRXr5xee1fdsWZWRmaeKkKTr5tDPkcrtt5934i2t02lnnap999wvVf8l3v68P339PG9asVlp6uk45Y5EmTZkaUefnn36sD999W16vV3Pm7ienyyXTDOrrJ53ao+05GA3JzdOG1avU6vMNit+nLSmvSvh909PjuyS1trToxX8/q3VrVsmTkqp5Bx+qI448OrR8vDGgoa6+03EokeOu3TiCvpOWmamkpCSVllcpKyO9v8sBBjyuOAMJqK6tV1qW/Q3BumLUqALt3LFdkvTS8//Spg3rNXHiZE2bPlNvL35d1/3kKgWDQaVnZuqUM86SJJ1yxlk65YyzlZc/tNPlrFxx9U9VUlykCxedpj/85not+3JJxHy7dVVWlOvpfzyu3/zyWnmbmjR63HilpaapqqJCl198oSrKSnXo/AVKTUvTT35weajvzmqsrCjXw3+9R88+9YRGjBylCRMn6/GHH9B5p52oO2+9Relp6Zq9z756/X//1Y3X/ixUa2VFudavWRPx+OG/3qN/PvGohg8foanTZuiZJx/Xn//wu1Cburpaff/bF2npl0s0Z+7+8vla9cPLL9UXn382oH4GKi0zU9V19f1dRq+oqauX0+VUalpaj/rxtbaqvKRE48ZPkCSt+uorXfX9y/TuW4tVMGas8oe1fRLkfy+9qF/97MdKTU3TnLn76ovPP9XlF1+o4qKdob4Wv/6qfv7jH8hwOLT/vIPV0tKi4sK2+Y898qDuvfN2jRs/UfsfeLDeXvy6fnnN1QoGg6qqqNAPv3OJiot3at5Bh6pgzFjt2L5VLrfbdt6uemuqq0I1fPzB+7rsG+eppqpSc/c/ULW1tbrq+5dp27aO77f/6+l/6OZfX6f0jExNnjZd77z5hu649Xcq3tnxXNAhPStTpmmqtm7Pv3IWDAZV39Co9MzMhJfpyfG9ydukKy+7WJ99/JFmzdlXaWlp+sPNN+j+u+8ILR9vDOjsGJ/IcbezcQR9Ky0zQ7WDZMwB+lr/X2IB9gBeb7NyhvXez+ikZaSrpblZknTp966MmHf4wiN16YXnqmjnDhWMHqvDFxylB+/9iw5feGTE99I6Wy7anLn76vFnXtTLLz2v/zz3rN5e/LomTZmqb176XR140CFKS02Luy6pLbzc8ue/aPiIju9CPfrw/Zo9d65+/H+/DE1zOBx69h+Pa+5+ByRUo2EYuvXOe0JtWlpa9K9/PqknnvtP6OOtuXn5+sNvrldFeVnoZM/KrXfeE/pIcFJysh7+6z266ufXKSkpSU89/ndlZQ3RH++8N3RX87yhw/TQvX+J219/8KSkyutt7u8yekVTU7NSPCmdN7TR0tys++++Qzl5+Trk8CNC04dkD9Ht99wfelxXW6OH7rlLP//1jTro0MMlSaeesUg/+O4levTh+/V/v7pJTY0Nuv+uP+snP/+VDl94ZMR6SoqL9PQTj+qvf39Co8eMkyQtOOoYnX/GSVq3ZpXKSkrl87fquutvjrkr/lfLl8WdZyU1JVVnf+ObOveCiyRJJ5x8qs457QS9/cbruvjS76q6ukqPPfyArrv+Zh18WNtzOWPRuTrhyMO40VMcbrdbLpdLjU3Nyu/ZBxz6nbe5RcFgUMkpnoSX6cnx/enHH1VKSqr+cMfdof13xsw5+sPN1+vrJ5+mMWPHSbIeAzo7xidy3O1sHEHf8nhS1VA/eH8LHehNBGcgAT6/v1c/yltWUqrZ+8wNPS4vK9UXn3+mkqKdKi8vkyTV1tR0egOXri6Xkpqis845X2csOldLv1iiRx9+QDdcd43uefDvnf5UTsHosREnTFLblbTCHdvU7PV21FRapoC/4+62ndUYXet+Bx6kf/3zSYXHg/0OOFCSVFleHjc4jx4zLiJU7HfAPD0Y/Iuqq6o0bPhwrVy+TAuP/lpEsJkyAD8K2PZxXFN+f0Au1579EzI+v1+ObjyHfz39D73z1mIFzaBqqqo0e5+5uvH3f4z4nvD537wkYpl1a9fINMxQaJYkl9ut4044Wc8/+1SojbfZq0OPWBCzznWrVysQCOihsJ+RkyQZhirKyjV56jSZpvSzH31fRx1znA45fH7oI+B286y4kpI0Iuy95HS5tM/c/VRZ3vbd9vVr1sjpdIRCs9QWJObM3bezTbdXc7lc8vl9/V1Gj/n9AUmSK4G70Ifr7vF96ZdfaEHUzyQuOPoY3f3nP2rdmlWh4Gw1Bkj2x/hEjruJjCPoOy63Sz62NZAQgjOQANM0Zah3rvQ0NjVq2+ZNOuX0to/NvfLfF/XwX+/R8SeeoslTpmnS5Kl6M4GfrunuclLbSfj+B87T9FmzdO4pX9eSzz7pNDhbXelyOAzNO+RQnXnO+RHTU9q/i9ydGq3Corsb31l0J0UuU1dbI08Pr37uDrs2s2ma/VtILzBNU45uXCGdNnOWLvnO9+R2uzWqYLTldzaj347VVVVKTo69QpeTmytvU9sJeVlpqTwej+VVYcPR1uHpi86NmH/mOedr3ISJyszM0oOPPaXXXn5JLz73jO6963YtPPIY/eiaazWyoCDuvERvCuYK21/r6mrkSR74++qAYxiD4n0T3PUcuvnpgq4e32uqKuWxeO8MyckJvXfayomtp7NjfCLH3c7GEfQxY3CMN8DuQHAGdrN/PfWk8vKHav6RR0mSHv/bQ7r0ez/Q8SeeLEmhv7qbwciBLHpgS3Q5O6kpqUpJTYsJHIkOomPGjlNNbY3mzN3Pcn5v1Nhbho8cpTWrV+rEU08Pm8rHXgeiWbPmxN2n4hk5cpRqqqtVUlwUcVVs86aNGtv+3ej8ocPUUF9v+ZH/XVfVDBlx150/dJgu/NaluvBbl2rThnW6+orvas5+++u4E06ynddVI0aMUnV1lUpLijVsePhN4thfkbhEj+8jRo3S6tUrdeJpZ4SmNXmbVFJSHHrvxNPZMT6R425n4wgADBTcHAzYTSrKy3T/PXfqxWef1pU/+ZmczrYrqw7DoS8//1Qtzc0yTVOLX/ufpI4rYBlZmTIMQyuWLo3or7Plwpmmqb89cJ+WL/1STd4mSW13Or3/njvla2nRgQcfYruueM445zytXL5MTz/5WOhkzNvkVU11dZdr7GtfP/FUvf3Ga3r3rcWS2r47e99dt+/2OtA3ps+arbHjJuj2W25WXW2NJGnNqq/0n3//K3Qla+as2crLH6p77/xT6B4DdXW1qq6u0rgJE7X/gfN0zx23RdxMbNe/qyoqtHXzptD0jMwsORwOJSUl2c7rjhmz52js2PG6/ZabVVvT9l7asG6tViz7slv9YXDr6fH9hJNOizg2+lpbdc+fb9PYceMjvlJkpbNjfCLH3c7GEQAYKLjiDPShSy48Ww7DoaamJrW0NGufufvqnkce04iRo0JtLr38St1+62+16JTj5Xa6NGP2nIjvU6empOrMc87X3X/+o5575ikdf+LJOvv8b3S6XLimxgZVlJXphut+Km+TVympKfI2eTV23ATdcMttoSt08dYVz4xZc3TNr27QfXfcrmefekJ5+UNVXlKi7/zgKh13wkldqrGvLTj6GG3dull/+M31uutPt8o0TU2azO+eDhZOp1O/uOm3uuXGX+vc005UZlaWvF6vvv3dK0LfFU72ePSLG2/WLTddr3NOO0E5uXkqLSnW5VdepZNPP1M//cX1uuPW3+vbF5ytUQVj1NzslTvJrYcef1pr16zWbb//jSQpMzNTZaUlOmzBQh2x8Ch9+vFHced1h8Ph0HU33aybf/ULnXf6SUrPyFR2draG9fB35DE49fT4vuDoY1RYuF233nyD7vrTrWptbdG06TP1y5t+3+nN7jo7xidy3O1sHAGAgcIw+WID0KnnX3lbk6fPUM7Q/ITaN9TXa/OmDaHHmZlZGj1mbNzQ2FBfr6LC7crLH6acvDxt3bxJ+cOHKy2142d8SkuK1djYoDFjxoV+5iaR5cIF/H6VlZaotqZGeUOHKjcv3/J7a9HrqqqoUHlFmaZOm2HZbzAYVNHOHfI2eTVy1KiI3/C0q9Gq36bGBm3csF6z99k3VFswGNTKFcs0aeo0paakxixn1U9rS4vWrlml6TNmRf6Wc1OjSnYWaszY8fpyyee69TfX67lXFls+r/5QW12ttStW6KRj5svt3rP/trl05TrVNDRp6px9El5m04Z1Sk1Lj/jjUrTVK1doVMFoZWUPsZxfWlKixsb6iPdKuGAwqJKinWpobNDIkQVKz4j8qbld+2x6RqZGjCoI7YcBv19FRYVqrG/Q0GHDlZPXcQMwu3nR9VrVv33bVjkcRsTN8kzTVFHhDrncSRo2fLh+8J1v6aivHa/TF51jtwn3Wss/+0wTx4zQlAn2N1Uc6Kpr6/XOR0u0z7x58qQk/l337h7fd2lpbtaO7duUk5ennJzIW5PbjQGJjEOJHHftxhH0naId21VZUqLjFhzc36UAA91mgjOQgK4GZ+wZnn3qCX3w3ju6876H+ruUkL09OMOar7VV555+kq69/iYdMI8TXCt7e3DeUwzE4+7ejOAMJGwz33EGsNdYsezL0E+cFBUW6sXnntUZZ53bz1UBsUqKi1S8s1BS25XnJ//+sPJy87TfAfP6uTKgazjuAhgs9uzLGQCQoGAwqLtv/6OKi4uUlZWtmppqXXDRt3TEUUf3d2lAjJXLl+mO225RRnqGWltaNHTECP3qt51/5xQYSDjuAhhMCM4A9goOh0MPPPaUigoL277fN3ackj2xv10KDATHHH+CDjligXbu2K6srCHcGAx7JI67AAYTgjOAvcrIgoL+LgFISFpqmqZMnd7fZQA9xnEXwGDAZ74AAAAAALBBcAYAAAAAwAbBGQAAAAAAGwRnAAAAAABsEJwBAAAAALBBcAYAAAAAwAbBGQAAAAAAGwRnAAAAAABsEJwBAAAAALBBcAYAAAAAwAbBGQAAAAAAGwRnAAAAAABsEJwBAAAAALBBcAYAAAAAwAbBGQAAAAAAGwRnAAAAAABsEJwBAAAAALBBcAYAAAAAwAbBGQAAAAAAGwRnAAAAAABsEJwBAAAAALBBcAYAAAAAwAbBGQAAAAAAGwRnAAAAAABsEJwBAAAAALBBcAYAAAAAwAbBGQAAAAAAGwRnAAAAAABsEJwBAAAAALBBcAYAAAAAwAbBGQAAAAAAGwRnAAAAAABsEJwBAAAAALBBcAYAAAAAwAbBGQAAAAAAGwRnAAAAAABsEJwBAAAAALBBcAYAAAAAwIarvwsA9mb+lqB8Laa2LmlQTVFr1Aj4pEgAACAASURBVFzD4l/xH0RMDptqWM/omB87KaY3I+YfNm2ipxgJtAmfYl2Q9SPrwuI/iluLYV2NxcoMSam5Do06wC2n25ArOXoh9D1TaqqUanZIa15sexyHzS4bf5lO25kx/VkusrvXFzUzodUbVg8ttmcnncV5K8bwTb9YQU+2TE9eItWhl3l9DfIHWvXumufU3FIfNif+C2e5f8bsN53vIPYtjE7bxT8+xzl+W7RL5H0Tv6/IBom8v2zHsy68nwuGzNCE/H3lcafJ6XAnsGYAfYHgDPQDX3NQWz5v0NIXq1W+pTlscI0KwkbU413/ijgxDptj2Y8RNUDHjtbRpxOGxZlSt/qxWyb0VPpi3dF/MAjbUvFOooyYrRk+Oaafpf9oVuZIpyYfm6RR+7rkTkkwJaFnKtbJeP9PMr96JjTJMKKCnmUYjDMvetnQ9DjrD+1vCYTZmHVJ8UKpbY1qX86iJrs6O2aZ8eu06lOSrLaLVViwCulRy4YfljzLbpPpSJJv9nfVMvN7CmRNiPME0JvqvJX6ZP3/9PpXj6myvkhSnFAX548ulsdlq/Ac770Xc3yVxbrihOe441Rso9iawv9hNQ7Er9+qXfTYEz3iWdYQVafFMN3ezmrsiyxmQv6+WjD1G5o09AACNNAPCM7AbhQMmFr/Yb2W/adKFVuaFTolNsNPqkOnyTI6ZkTOMdtG7LZpZif9mDLMjhHelNkxdLc3i5gmyTTNmEG8W/3YLRN6Kn2xblOmGR6ew7ZUaNNEVdO+8aJegbBtGttPXVFAX/y9WRtfd2jSMUkaPc8lZxIBuk+ULJf5yX0yVr8o0++NmNX2WoeFtY4XMfZh9LzoZUPT44TS0P5mtO0JYf1FdW2xrl0nx1Hr63hL29RvtHeQeJ0dfUYua7c9QpNMIzY8R9cZtnxkn5HLhr3l2sJGsFVJy/8i99on1TrlXLXMulzB7CkWTwI91dBco/fXPq+3Vz+jstrtEa9d7L4TPbaEt7U4LkctH32cbu+x/bWPPr7KYt/pmGD1fogdpyyOzTE1he97VuNA/Pqt2kWPPZFPN04NUXWGeog5PliNfZH1by5fqi3lSzU2b46Omn6Jpgw7SAB2H4IzsJtU72zRkn9Xau3bdWF/Qe8s9BKeu7/u3ROeZZiqLQrqi8eaVbLKpeknJimrwCn0HvOT+2S88zuppb5tu1sERcKzdZ0DNTxLktFSpeSv7lXSpufkPexPap10lsWTQHetL/5Cz316l9YVfR6aZhqR120Jz5HbbE8Iz6YMbatYoUc/+LEOnbxI8ydfoMyUfAHoe9wcDNgNKre36N/X79Dat2ulXSfa2vW/sJPL0D8jTzjDZkTO6VI/ZvjDtsdRzSKmqW0Qj9atfuyWCT2Vvli3qchuwrZU2DaKbBKzNcMnx+mn7fHOL/x67zavqrcFYmpHNwR8Mp/7tvTqtTLDvo9psWu0T7dIf/EeRs+LXraTdXXsb0bEY4uuLdYlxZyxt7ezrVHty1nUZFdnxywjfp1WfUptqaCzOsOWj+wzNgBYrctoKlXa4ouU8skvJZP3Tm9Yse093fLCt7Q2LDRLksyYo6/FvhM9toS3tTgux+ynsTuIGdXYat+LGeWs3g+WY0VsZ7E1hf/DahyIX79Vu+ixJ3rEs6whqs547wfrsS+yGFNS0Azqg/VP65H3f6Q6b3nsEwHQ6wjOQB+r3NasF27crsYqXw9Cb8QMwvMADs+tTaY+vNOrqs0EgB7xeWW+eKX01XNtj21PQsOnE57t+xyY4dk0g0peeptSPrtRCvpj14eELd3ytu545QcKBP1xXqc9ODyH9x93/XtPeJak0roteuj9H6q+uSL2iQDoVQRnoA+1NgX0wm/aQrNlGCM8R3c6KMJzS4Opj+/xqrkmXpJBZ8y3fy9zxTMdoVSKEz4tliU8d9LnwAzPkpT85a3yrH4odgYSsrV8tf76xs/kD4T9SsNgC89xx6nYRntLeC6v26pHPrg69kkA6FUEZ6APvfe3UjVWhl09ITzvNeG5ud7U8mebZQZjSkcnzE3vKLjk0Y7HhOc49Q/O8OxZ8js5a9bGzoCtptY6/fPDW+X1NUrqLNRJhOewNjGFWNff3fAc028fhOfS2s16e+3fLNcHoHcQnIE+8tXr1Vq1uNryZEXqSeiNmNHFfsLKIDwrYkv1QXgu/NyvDW9E/z43bPm8Mp86X0ZLXdRrS3i2rn8QhmdvmdJeOVP81alrnv7oz1pV+KntMdFqPIoNxDGNrF9PxTkuWwXLuOE1+vgqi3V1TLBuFz1WxDbq7/BsOQZH1Rnv/ZBoeDbNoBavekjrSz+NXRmAXkFwBvqAvyWoz57edbOO2BOT/gvPZlTrboRewnPHMrb9tD1e83KLfM3xUgyime/8QfKF/dxUxMtJeLauf/CFZ0fNJiWt+VvsemCprHaH3lr5T0mxwY7wbHW8jg2fUf+0rd+qXSLheXfcMOytNY8oEPTFPgkAPUZwBvrA1i8bVF/pix/EJOswZht6Y1qre+E5unU3Qi/huWMZ235M+ZulwiXc7ChR5hdPWEwM/yfh2br+wReekwnOCXt31bOx44HNMdFqPIqetkeFZ8uxIraz/g7PljVE1Rnv/ZBoeN5WsUJldVtinwCAHiM4A31g3fttPztlG8Qk6zDWpdAbMaOL/YSV0Z3QS3juWMa2H1M7PuOv/wlZ/4bM5lrrsBfxchKeresfXOHZWbNWrsoVsetAjI82vNz2j701PIf3H3f9cYJrxD+sxoH49Vu1GwjfeV66/XXL9QDoGYIz0Msaq/0q27Tro6YDOTx3IcDGC72E545lbPqpLwqosYLva3bG3PRW6KeICM+EZ7U2yLnzfcuy0WFH5TpVNZTEBFApNtgN6vAcd5yKbdTf4bmvv/O8pWKpfIGW2JUA6BGCM9DL6stbVVsafkOogR6ew1t3I/QSnjuWidNPc62p+hKCc2eCmyNDEuGZ8OwqeseqYoRZu/MLBYJtvxsfHUBD02yOiVbjUfQ0wrN9/Vbt+vM7zzuqVqnV3xRbOIAeITgDvWzLknrLkwzbICZZhzHb0BvTOvZkqVv9dCP0Ep47lonTT8lXfFzbTrB0jcyanTHTCc97d3h2lS+V4S2LUzQkadm2dyMeRwfQ0DSbY6LVeBQ9jfBsX79Vu/78zvO6ko9jiwbQIwRnoJdV7WxRbBCTQgNgvCAmWYexLoXeiBld7Ceq0q6GXsJzxzIW/dQXx0sskCSjoUxqrrUMpoTnvTc8G/WFUmtjnIIhScVVm20CYPT4EN7GLtS1LRs9jfBsX79Vu/76znNp7RbLvgF0H8EZ6DN7Wng2o1p3I/QSnjuWieknXlpBNMKzVZ97b3hGYgjP8dpFjxWxjfo7PPfZx7YB9CqCM9Cn9rTwHN26G6GX8NyxDGcv3UZ4tuqT8AwrVsfxqDl7c3i2HCtiO+vv8GxZQ1SdFsN0ezveKcDuQHAGeln7OB0xJfavyYRnwjM6Q3i26nPvC89IhNVxPGrO3hqeQ9Oix4rYzgjPAOwQnIG+EHOSYX22bxvE2vuJXLqroTdiRg/66UboJTx3LGN1IodYlsFucIdnR8YIpS68VplnPqKkiUfJNML6Mgy5xx+p9K//SclzzpWRlE54RiyrY3YnATQ0zeaYaDUexQZii2KsXk/FOS5bBctOarfa92JGuTjHXMIzgJ5w9XcBwKBlmjINI+wU15RpGjIizgdNmTJkmGo/F25/HNWPDEOhJjLbTirbz2Mj5rQ1lSJby+iY0cV+oiptbx9Tafui0dWbpikjqqNu9WO3TOip9MW6o1+zsC0V7zWzer3iBBZY6NhwHZNMQ4YRe8IbvY+GL9v2mpgx0+Mua7We6OXCH8b0GVuj3boMl0eeuecp9fAfy5kzXpLknniUqu87RMH6YhmSXENnKnPRYzJSc+QJXirf9o/V9M7v5Nv2gQwFZZUwwnbvOPUb7UUlVmdkn5HL2m2P0CTTaH+z2NQZtnxknxbLIkYonEUf+6Ne044mUeNBxPsm8pgY+zpFj2tW+0702BLe1uK4HFNn5HHaqnarfc/qmGv1fogdpxR7jI+77To2WPS2i1e/VTv77WzRqUWdoR5ijkWx2xhA7+CKM9CXLK4871nfeTajWkf/NT36T+ux1XPlede/CAAJs9hUg+bKs+FQ0oSFyr7kVWWcdEcoNEuSIy1fhjsl1LWRPkxGak77TJfc4+Yr88IXlHHGw3JkjZHlEG52UmNbEXG2sWX5UX1y5Xkgij4ehf4Vb//dW688xx2nYhv195Vnq/cjV56B/sUVZ6DXtQ1m4Vcge+PKs8tlKCPXJaO9r+bGgJrqg92+8mw4DWXnu0LzAz5TdVX+BPrhynPEFo/3mlldGUFcu/60YHsFc0++8iyHXPlTlLbw5/LMPlMy4vzdupPzXcOVrOTZZytpyvHyfniHmr94WGZTReSCpgbXlWckJPp4NBiuPLsdSXI7k+R0upTkTJJhGHI7ktrbGTIMQ0NSc+X1NanZ1xRaNmgGFAj6FQgG5A/65Q/65Au0yjSDNuPUwLvyvOuPcRE1RNUZ98qzAPQ2gjPQR3o7PI+c5NF3/jheLnfblMVPlOvNJ8rU3Y9tp2c79eOHJ4TWvnFpkx79VWGC/RCeuxqekZjBGJ4d6cOUetBlSjnoMjlSc2NXFrNyxTzvaEZyplKP+rWSZ58t7/u3qnXNCzL9zRF9EJ73PntieE5PzlRWyhBlpGQrL32ohmWO0rCsAmWn5CgzZYjSkjPkcaUoIyVbDsOhtKSMTj+K3OpvUbPfqxafV80+rxpb69XQUqfapkpVNJSqrL5IZfU7VdNUqbrmajU01ypoBgdkeLasIcHwDKB3EZyB3mbu+k/097B6Fp6TPI5QaJakpjp/xwq7EZ49aZFXvAI+M+qElfBMeO4fgyY8O11K2eccpS34iZx5k2KeiNnSoEDNdrmGzQjrM2z/ixKo3CjnkHGSo2PoduZPU/ppD8i3zwVqeve38hd+qtDnOQdJeIa96G00kMNzWnKmRueM17jcyRqfP1XjcicrJz1fmZ5spSVnyulwdnczREhyJSvJlSx5sm3bNbbUq765RjXeShXVbNOWinUqrN6i4tqtqmgoUdAMivAMYBeCM9Bnejc8x19D+7+6GJ6TU6w+KtrVfgjPCYdndC7ihH3PDs9JY+Yp/Ws3KGncIRFBt61dUC3rX1Pjm79R0oSFSj/+d1Elt9cZtds0vXmjZAaUetT1cuZP7ZjhcMk98Whljp6nlq+elfe93ylYVxSqaU8Pz+iE5b0cBkZ4djvdmjp8H+079hDNGrW/xuRMVGpyupJdnp4+616RlpyhtOQMDc8arWnD50qS/EG/mn1NqvVWam3Jcq0rWaaVO5eopK5wzwrPDDtAryM4A73M3PWfsBOWRMKzogbJ6PDs9wUV8JtyutpauZMd6lhD+7+6EHqDwahRNfxsl/Dc++GZs5jE7NHh2ZAze4zSj/4/pcw91zIw+8vXqv6VX6h1w2IZhqmk8fNja22vM1ow0CLf2pfVuv5VeQ6+UimHXClH+tDQfCMpQ579L1HyjNPl/eA2NS95UGZrw54fntEp6+Pa7g/PTsOhzJRszS44UIdNPkYHjJuvdE9m5HG5E4GgX62BVvkDPvmDPtV5a9Tsa1JlY5n8AZ9qvVXadVssb2ujGlvqJUk5aUMjrlhnpQyR25mkdE+WUpPSNCQ1Xy6nWy6HSy6nW25nkmVdLodL6cmZSk/O1Kjs8Tp62mkyZaq4Zru+2P6+PtvylrZWrlNTa5NCf9YeiOEZQK8jOAN9wOqEpbPwbHXGGB6emxsD8rUE5XS1nRgMGeYOjZjdCc/11YGImjNynN0O4YTnjkb24RkJ2QPDs5Gaq9QDLlLa/B/KkZYXs3ygtlBNH98r7+ePyGxpCK3LUmh/s54lf4u8H/xJrav+rZT5P1byrEUykjM6akkZotSv/VZJs8+W971b5Nvwqkx/y54bnpGQ/gzPKUlpmjp8tr428zTNG3+EsnbdDd5GMBhQbXONapsqVVK7UzuqNqm4tlDl9cWqaixTrbdatd4qBc3IscpQ7A4SemgYkY/DHhiS0j1ZyvQMUXZqroak5WlY5iiNHjJBBUPGKzslV1mpOUp2pcTUasjQyOyxGpk9VifNvkDFtdv06Za39OGm17StcqNMMzDgwjOA3kdwBnqdqejQm2h4tvvYdkOtX81NQXnS2oLz0DHJcjgNBQPdC8/+1qC89QGlZLT1l5XnlsttyO8zu9BPVKWEZ8WeNHES0y17SHg2XMnyzDhRaQt/Ivfw2TELmq2N8n75pBo/vFvB6s0WfcauJ1STzSxDUqB6ixpe+pFalj2p1KN+Lfe4+Qq/W7dr+D7KOPPvat34urzv/UH+oi8Jz4Pc7g7PaSmZOnLqiTp21umaNHS6XE533NoCQb+Ka3ZoU/kabShdpfWlq9pDcrlaw25sZ3Xjr+i7bXf3d54bmmvV0Fyroppt7R23tXMYDmWmDFFu+jCNzZ2sqcPmaEL+dI3Nmdz2XemIWgyNzB6n0/e9RMfPPEdLd3yoN9Y8p9VFXygQ9O+28Bwt9sZmNgcRAN1CcAb6TO+G54Zqv+oqfMrObzsxyRuVpKw8l6pLfRYnC52HXl9LUNWlvlBwTk5xaMREj3as9Xahn8gBnPDc0Sg2PKPLBnh4do+YrYwTblbSuMNluJJi2rZufEv1b/xGvqKlUjAgKbbGLonM7O27VlC+7Z+o7smzlDT9ZKUe+Us5czruli9nspKmniz3uAVqWfa4vO//QcGmCsLzIBK9R+2O8Oxxp+jYmafrjAO+qVHZY+Pe5bqhuVbLtn+qpds/1uqiL1XRUKqGljq1/c5wxwscvnSiP1XV3fBsRE0wDSloBlXTVKmapkptKl+tt9a+qBR3qnLShmrWyAO039j5mj1qnlKT0iLqSklK06ETj9UBY4/Qsh0f66nP79aO6k2h/vsyPMeeK9i8RwH0CoIz0Kd6LzwHg4a2rGzUmOmpkqTMXLcKpqSqurQ21E9XwnNrc1Db13g1clLbTVpcSYamzUvTjrXeXUt3ITwrrDXhubOTJlgwrcPvwAvPhhyZI5Wx8GqlHPhNGdE3OTJN+cvXqWHxb9Wy5mWZAV9Un70Qni22h+lrUstXT6t1w6tKOej7Sjn4ChkpQzqqTs6U56ArlDTjTHnf/71aVjwltTZYP28NrPCMzsV+dLdvwrNhGJo79mB978hrNT5vSsw62gJolT7e9KY+3LBYq3Z+qRZ/s0wzKCl634keWzqpv4/Dc0Q7SV5fk4pqtqmoZpsWr3leackZOnDcAh0z/QxNzJ8RcSU6yeXRvPFHak7BwXppxeN6cdnf1Oz3aneE5+jtSngG+g7BGehlphk9cPVeeF77eb0OPz0vdIOw/Y7J1uqP6xTwm6F+uhKe13xar3knZsvhaJs2a36GPn6xWg21gV1LJxieo1sTnmPCcw+y0t5kIIdnhydLKfufp/QFV8uZOSKm9mBDuRo/uleNH/9VZktD3Dq7H55jN0L09jC9tWp69/dqWfG0Uo/6lZKmnSTDnRrqwZExXGkn3Knkud9U09s3yL/1PSnQOqDDMxLT1+HZ7UzSogO/pQsPvSLm48st/matLV6uV796Th9tfFPe1sa2GXHuth2xpoEYnkOltR0dgmZQ9c21emvtf/TOupc0IX+6jp5+ug6d8DVlhv2ByuNO0aL9v6NZIw/Qfe/epKLarerr8CxZf+cZQO+z+j0aAL0gcuBq/6iu2fE44mH7AlGn+6EQvsu21U2qKfeFHk/aL11Dx0aewOxaoGMxM/Qgek7h+maVb28NPc4ZkaR9j8mKXrrTfkzTqrUZ8QTNyAex06T2j+9FPZ3u9GO3TOip9MW6zZjXPawpEmRaXWaM3fQWD+Ivb3kiGdGnYTldkuRwyzP9eOVe+qKyTr41JjSbPq+aljyuygeOU8M7t3Xc/MumTsvnaLHq2PlhZ9jxljGlQPVm1T9/mer/ea58W9+X2q/47eIauZ8yznlWaafcL+fQWQqliZhaYqe31R+3wLDmRtdeN0lcYu6Z6NfF+rimsO1vdRyPmmOacjndumzhNbrkiKsjQnMgGNBnW97Tr/59ua599jItXv2fjtDcvmx0BbElRY8tndQfU6cZZ9/taGy178WMcrHdWI4VQdPUpvLVeuC93+q6Fy7WKyv/qfrmmog200fsp2uOu12jh0wM9R+53ePXb9UueuyJHvEkq9c+dl0AeobgDPQJq4Gse+E5nL81qCWvVYUeu5MMLViUZzHYJxaevfUBffF6TahOw5AOOXWIckcmRRRPeO7Kuq3DM7pmoIRn9/AZGnL+Ixpy/qNyF+wXs3jrlg9V9fezVPfCj+Qv3xD/BN6izrYaYy+9dnbCm2h4VtCv1k1vqu6pRWp46QcK1hVGNDFcyUqefY4yvvGyUo++UUZKDuF5EOiL8HzyPufqlH3PU/j+Wl5frFtf+blufPGHWrrtE/naP7lgNR7t0eF5V/8W6y+q2aqHPrhFv3rx23p/wysKBDvuAF4wZIIuX/BreVwpof77Ojwz3AB9i+AM9JneC8/hfXz2SpWaGzsG5zkLsjR+dmq3w/OXi2tVvqMl1Coz16VTvj9MriSjB+E5onrCs0wpet3oVH+GZ0dqjjK/fpPyv79YKbNOleFOiVggUL1DNc9+T5UPn6aWTe+3fZc5Ti3d+TtK3DpD+1uC4VmS2VKv5i//rpr758v78V0yw68ISnKk5ctz2E+UddmHSpp1juRIsuiG8DxQWR53ezE8j8geo/MO/q5c7b9LbsrUJ5ve1g+fOE9vrn5JLT5vJ6FOe3Z4jjtOddS2vWqj7nrrl7r9jZ+rvrk21GbqsH30telnRWzsvgzPjDJA3yI4A73OjPl3b4bn+mq/3n22PDTH4TB0+g9GKjXT0a3w3FQf0KuPlHd8T1rSxH3TdNwlQ+VwdTc8m1GtCc/ont0dnh3JGUqdd7GGXvWBMhZeJSM5PaJZsLFC9W//SeV/OVxNXzwp099ivZ6+Cs9hy3clPEtSsLFMja9dq9qHjlDrmhelQEtYQ0OO7LFKP+MRZV70itxj5ksOV1Q3hOeBybSMTL0Vng+euFC56fmhNb21+r+66T9Xq6y+2PaYuDeFZ6nt57Y+3rxYv3/lR2r2eUPTj5x2algfuyE8mzbvSQA9QnAG+kB0gJJ6Nzx/+r8qlWzt+N3LoWM8Ou7i4XK6rE9WIvuODb1rP63X569Efkfr4JOH6OgL8+R09+TKM+GZE5jExdtWuyU8Gw55phyt3G89rSFn3iFndkFke3+LvMufU8WDJ6vu1ZsUbKrufD29EJ7j6mZ4liR/2VrVP3uh6v/1Tfl3LlHk958NuUYfovQLXlTaiXfLmTs5qhvC84BkcQyTeic8Tx0xOzTN29qkxz+6Ry0+r8WyhGfJ1LrS5fpo0+uhKSOyxigtOSusj74PzwD6BsEZ6AsxJzG9G54bavx67W8l8rV0/MTHgccO0bzjh8gwLE6fEgjPbzxerk3LOj7CaRjS/DNzdMw38nv4sW3Cs2l1AglL/RGeXfmTlHPeA8r95j+UPOEwyXBENGrd/rmqHjtfVU9/R77iVV2rc4CGZzMYVOval1T3xClqfO3nCtbtjJhvuDxKnnuRMr7xqlIOvyb001b9Ep6RmD4Kz9F30JYZ2SnhOXb9jrBjiCFDSa6kqM1LeAb2RARnoK/0cXhe/Wm9PvlvVaix023o698eoRkHZyp2WO9YcbzQ66336993FKtkS8fHNx1OQ4edkaMzfjxCnnQn4bnb6yY5d8XuCs8OT4Yyj71OQ694Xan7LpLhjvxN5mBDuar/fZUqHjxVzWvfkPy+iPl9EZ7N6JuFdaYn4dmUzOZaNX96r2ofXqjmz+6Twm5uJEmOjBFKWfhrZV78ppJmnBn6eZ/dGZ5hL3r79XZ4rmvq+DRSSlKqLjj0e21hmvBsuf4pw2br4AnHRNThD/ij1t/xqO/CM4DeRnAGepn9SUzvhedgwNSrfyvRui/qQ1OTUx0677oxmnloptSNK8/Vpa167IYdKtrY8TFwh0Oac0Smvnv7WI2c7On4vVubfgjPVn1zStMV8b6n1xvh2XCnKHXfszTsJx8p82s/lyMtN6JNsLlWDR/er5LbDlTjp39XsCX853Vi67SuvwvhubNlO1umh+FZkoJ1O9X4yk9U++Bh8m18o+23nXcxHHLmTVP6mY8r44L/yjXyAMnhFOF54OjL8Fxc23E3dkOGvjbzVN14+j0akzsx8neXowoZ9OE5aju7HG7NG3+UfnHC3fKE3Uywxe9VXXN1xKId/yA8A3sSgjPQ60yLgaxvwnNrS1DP/HGHKnZ2XCV2Jxk6+2ejNfvwLDkc1icrkX1HnpjUlLXqiZsKtXl5U8Ri+QVJuuR3Y3TE2blKSXOEL23ZD+E5Tt/osW6HZ4dTyRMOUd63nlLu+Q/KNWRMZBf+VnlXvayK+09RzQs/V7Ax/GQ3/u88dzc8y+GSo/2mS9bLRl8hz1bcK9I9Ds9ty/lLVqjun2ep/vlvK1C6MmY17vFHKuOiV5Vy7B/lyB4nwvPA0VfhubR2Z0ybeROO0B0X/EMXHvJ95aUPi7PsIA/P7ZwOl6YNn6urjvmtfnrsH5WenBkxv6S20KKm8H8QnoE9BcEZ6CO7KzzXVfn16A3bVBb2k1KeVIcW/aRAh5yc060bhtWUt+ofvyvUl2/UKhjoaOVJc+iYi/J18c2jNW1emhwO2fZjHZ6jnjHhGbt0IYB1OTw7XMo+/hfK//Yz8kw5MvJ7zJJady5X5ZOXqPKJb6m1cJmiduT2f/ZWeDbkGjZDWYvuV+phV1gvKEXc1VqS0o+9UelHXicj1Tps91Z4VsCn1lXPqfbR49X01g0KNpRGtDXcqfIceLkyvvmGkmaeJcJzP7PZfr0RolKxWAAAIABJREFUnsvqihSMuIFcm6yUIbp4/o905wVP6ZL5V2lc3mQZuz7KvxeE56yUHC2ccrJ+ceJfdMMpf9Vhk44L/WRXuPL6ojg1hf+D8AzsCWLf4QB6JuqEwQg7iTWNsMcyJRkyzbYbcUUs0Taro43Crj2ZpkzDCDuFN1WytVmP37RNF10/VvkFbTdySU5x6MTvjNDw8R69dH+xWr1R16raV9zRtymZRug8tqnOrxfuLtbOjV597aJ8edKcktpqHTXFo3OvHaWNXzbq7X9WaueG5rj9RKzBlAxj1wba1dqU0d7eapu19RO+3dpOlAwjMpB0qx+7ZSxfs56tGwmI2NnbJ0W8R8KnG2H7U+zy4V05kjOUseAKGVE3Ogo2Vqnu7T+r8dPHFPS2fZczZl0RfRodX1eIqjWROg1PptKPuEqpB31bjtScyHatDRHfozZbvVLQHwrQjozhSjvy/+SZs0gNb92slpX/lqIDTWh/a68zzvaIX7+h0Em8t0reD/6fvfeOj+MsEPefme1NWvUuW7bkHjuJ7dhpTiEhPSE5OgQI5eCAK3BHOe4ox3EchN9R7zi+XCAQSkJICCEQQqrTnbjHca+yJKtrV9vbzPz+WGnrrLSyd2XZeR8+ONqZt827s/O+z7wz7/stYrsfxHbpZ7CsfBfIplR4uaIF21VfJ7r7geT5rmlFf3cZl4mJAmv65RQ/m+LIqOjc+su9huUEn/isd10DSQNf2Esw6sdlrdTNurGyhfdc+Dfccv572N23nWf3P8YrhzcyHhoreE3MuFymCpTdrumdO7ltyzTlzz3GnOt06hgzAuede1l5aViMds5rv5C1HZdxXttFVDnqsiYC0+PEeHcqsfwyZTb1GS2m3nUwr53JD5fX9ggEgpIixFkgKDOzKc8/+9Ix3v+V+dS3J+XAYJS44LpqWrps/ObOHoaOx7Ib02nkORFTefkPHo7sDHHzJxqZv9yeGqgzmiWWrHfStcbBgc1BXnhojL4DEZS4lpdOvjynjyt1xGe7PAumQdKVvUlOWZ4lKUuatXiE4JZf43viThTfAJlfkm5epyjPmOzYzrkF19VfwuBuyTlADWX8BIEn/h1lvC+VZrznVYIv/S/2Cz6EZLZPVJOEobaTyrf9lPgFHyHwxJeI927JntSrhPKMpqGMHSbwh48T2XIXjmvuxNiyduIdZ5AmHktNJlMmeRZMSerMLZM8+yM+/BFfSpyH/QPs6dvBhZ1XZM247bRUsG7BZVzQsYGYEuPQ4G62HXuJ7T2bODZykEg8TDwRyyjT3JZno8GE1WijpXo+K1rWsKJ5Lcuaz8dqtCLpyLKqqQz5T3B4aDcXd16T2j7g683KaVblWSAQlBQhzgJBOZjmLnC55HmoJ8r/+8xh3vn5djrPdabSa+m08bH/WsiTvxxi82Me4pGMUapp5FlCY7A7yk+/cJy117rZ8LYa3PXpUSeDUWLphU6WrHNy9PUQm//s5ejOEMFxNeeOvZBnwfSUS55zCbx0F54//Gvqc266JZNn2Yil42Jcb/oc5o6L8xLVon5CW35B8Pnvovj6s2UnEcX/5y8Qee0BXFd/CdOCDUiGid+eJGOafzHuOx4lsuNeQs//F8rY0byylkSeATSVRN8Wxu+5joq334ep6xpyEfJ8+siVv6xtEx9OVp4DER+BiC/1WVETfP+Jf+fBrfdw2+rbWTP/YpzW9Hu9kiRhMVpY3nI+y1vO53Y+STDqp2fsKEeG93N89DDHRg4y5DtBIOojGA0QV6KpAs22PEuShM1kx2lxUWmrpqNuCQvqljKvppOOmkU4C4y0Z9ZHr+cYf9n9W57Z/wduWvVeLiZDnL092WWfJXkWCASlR4izQFBikuOtene1Z0eefWMJfvHVbq55fwPrb6jBYErutbsM3PjRRpauc/H4PUP07M2Y/KsIeVYSsOmPHva9GmD9jVWsvsaNo8KQSkKSYcFKOx3n2PH0x9i/OcjuFwP0HYyQiGtCngVFMxvyrMbC08Y/VXk21XfhvPzT2FbehpQxyy6ApsSJHniC4Mb/Itbzql7yqQ/xvm14fvkOrMtvwbHhUxgbl6dCSUYLtjUfwLL4WkIv/5DIlrtRw56s+CWTZ4BEFDVjhuBcyiHPgmnIPQVLLM8xJcaIf4BFjcsBsJudOK0V7OrZwuu9W1lQt4hLF72ZdQsvY2H9EkwGc14RHRYXS5pWsqRpZWpbNB5mLDSCNzjKWHCYE94eRvwDDPpO4I+OE4z4CMWDhGNBwrEQCTVjpvcZyLMsyTgsTmxmB3azA4elgkpbNQ0VTTRVttNQ2UqNox63vYYqe43uaLIeY8Fh9g3s4Jl9j7C7fyuhaHKFi8aK1qxwQ/4TeW37bMiz+PUIBKVHiLNAUCZOpzyHAwp//HHy/eTrP9yE0z3xjqQs0XW+k7bFNrY87uXZ+4fxjyVS6UwnzyDhHYrzl7uH2PyYl4turuL8q91Y7OmOhiRBdbOZC28xs/Y6N8M9Mfa9GuDQ9hC9+yNoyhtTngVFoCelJZTnabMvkTzL1gocl3wcx/oPYXA1kEt8cC+Bx79K9MCTaImJpd/0OtAZH7RElPDO+4kefAL72juwX/opZJs7FUd2NeK8+itYV76N4LPfIrr796BlPvVRQnnOJW+0q7TyLCiC1PdcHnkeyJhZOzky606FOzy0nyPD+7l/809oqZrHugWXc/689SxuOge72VmwyBaTjabKNpoq2/L2xZUYsUSUmBIjnogSV+Ik1DjjYQ8JJY6Gxoh/YtK67GYWl9Wdepy6ylGLQTZgNlgwGcyYjGYsRquu3BdD/3gPu3pfZUfPS+wf2MlYcCQ5cVpGGRoyxDkQ9RGI+ibq6nTIs0AgKCVCnAWCMnI65TkRhy2Pezi+N8Rb/raFhavSj25bHQYuubWGlZdW8OLDo2z64xjRkFq0PGsajJ6I8acfD/Lcg2OsvcbNmmvduKqMWZMVG80STQstNC20sOGt1fg9CQ5tC3FoW5DuPREiARUloeU/JntWyrOgKMolz3r56KZ7CvIsG7GtuJGKa7+MsWZBXiQ15CHw7HcIbroLLRrIzkdXPvM/qCEPgee+Q+T1h3Be8Xks59yGZLQmd0oyxsZzqHzbT4mtfj+Bx75AYmhvUqCFPJ/9lFGe+zzdqe2ybKC+ojErVU2DcCzEocG9HBrcy29euQu7xcGihmUsb1nN0uZVLKxfSoWtEoNsnHZCLZPBjMlgxnGSVXEqaGgoqoKqJujxHOXw8F4ODLzG7hNbGQkMEFOiybpJxZCyzt3MEedhfz8JNWPCPyHPAsEZjRBngaDk5HS6T6M8a5rEUE+Un3zhKBfeVMPlb6ujojb9fnJFrYnrPtTIuhuqef6BEV5/0Yffo2SUIlXAPHkGUFXwjcR56lfDPPfAGEvWOVlzTSWti2xYHdkdI4NJwl1vYs21lay5thIloTF4NMbxvWF69kUYOBolOK4QCaoTA2VnnzwLimS25Dknr6niTynPsgFT6/lUvPkLWBddmZ9FNEB410P4n/h6cvKvQvkUKc9oGonRo4w/+DHMW3+O46ovYm5fn16+SjZi7nwTVR99hvDWewi/+H2U8R7SZ/IZJs+CKcm6B1QmeR4Y70PT1NRjzC1V8zNyl/LiJtQ4vrCXrcdeYuuxl0CSkCSZxsoWFtQuor1mAe21nbRVzafaUYfVZMNismExWvOuo+VCURNEExEi8TDBmJ/B8T56PEc4PnqY46MH6fUcJRQLpA4qq1RS1pGnNtgtLlzW9JMgw/5+4ko8M+bsybNAICg5QpwFglKj5UvU6ZZnJaHxwkMj7N/s5/K317HyMjcWW1psqxvN3PLJZi59ay3bnvSy4+lxRvtjGf3dwvI8WcZ4VGHXcz5ef8FHfbuFxWucLL3QSWOHBbM1f3TBYJRo7rLQ3GVh/c2QiGt4B+OMDSQYPBZl6FiMsYE4Qa9C0KsQj2lntjwLpiRvAHgG8ozOvQldeZ4q85OUZ2N1B84Nn8Cx5t1I5pzxMVUhcmgj/qe/RezYy6Qe6Z4qn2LlmeT5Fjv2IvGfvQXryrfiuOyfMNR0pvZLJjv29R/DsuQGQi9+j8iOX6NFfSWX5ynLSAnkWVAU5ZTn0cAQ0UQEqyk5u3uzuz0/Q724GWXQUOn39tDv7eGlQ0+lCmIz2XHba3Dbq6mwualx1lPtqKPC5qbSVkWlvRqzwYLd4kBCxmQwYTFZp6yLyUe9VU0lHAsSTUTwhT14Q2N4QqN4gsN4wiOMh8bwhkcZD3nQJp7MyCSz/vTO81x5rnM1Icvp9m40MICqKhPXqMy2ovzyLBAISo8QZ4GgTJRanmubLWgkH5E+GXmWJBjujfLg9/rY/LiHq9/bQOd5zqyGurrRzFXvrWf9jdXs3xxg25Neju0OoSa0yQJOKc+goakSg8eiDB6LsukRD9XNZrpWO1i4yk77MluWsGdiNEnUtpqpbTWzaE2yc5aIa4QDKhG/gn9MwTsUxzuUwDuYIORTCPlUQj6FaEglGkp3FeaiPAuK42TkWXcb08vzVMJXKP7kuS5ZnDjX34FzwycxVDTmpZ0Y2o//mW8T3vV7tHg4nUUx5ZyRPEuQiBDe9kuiB5/Evu4j2Nd/FClj1MvgbsN1/Z1YV72T0MZvEj34OJqmnII85/Xas5cWKrk8C6ZGy/qrHPI8FhghmoimxLm+ogmjwURCic9InrPKMLEjHA8RHg8xMN6bjpTz3UuShMVkR5YkjLIx9Y5y/rmTjKioceKJOBoq0Xgkee3WOdFyN53qOs8NFa3IUnrSzH5fb0ZauW2FkGeB4ExDiLNAUEZKKc/VjWauu6OZn3zxMAGvctLyrCoax14PcveXjtF1npMr31VP+xJ71rvJTreR1Ve7WXV5JUPHo2x/ystrz47jH1NSI3xTyfPktlhUZfBohMFjUV5+2IPNKdO+1MaCcx10rLBR12ZGkiX9jjNJmXZVGXBVGahrB0jPTKwkNFRl8r/JvydHpoPjCpoKIZ8ysa70JPkdEynnj/2vhOneFS34nZ2sPItuTPGcjDzP6LHtIvKaKr6l6wrcN/0HpsalkPOuphrxEXj2ewQ3/RQ1OJrcmCefRZRzhvIsSRqqf4DAU/9BeMd9OK/6Etblb0lnJsmYWtdQ8c5fEjvwFwKPfxFl7PBJybMuZZRnQTHkjn2m/yiFPI8EhojGI6lLsNtejcVkI67E89qi3LjZZdKX5+Tn3LYwXUZN04jEgiDllrKwPEP2qVbqdZ4zd05uq3c1Zb2/PeTrywk3u/IsEAhKixBngaDMlEyegXnLHPz1f3Zy95eP4BnK77AUK88AiZjK3ld87NvsZ/FqF5fcVsv8FXbMlnSjbzRJNC+00rywkes+1MCh7UF2Pefj0I4gfk8iObHXNPKcbOCTy1kFvAp7Xg6w9+UAAPYKI62LrLQvs9G80EJduxmrw4DZKiEbpm75DUYJgxFMlnQ4Z5VhihjF4R1SOLYrQjlGngVToFFY4GYgz7kjVcntUn7gnKyLlWeDu5Wa996NbK/KDhMPE979J8Yf/TKKNznKVFh0yyfPaCrKyEHG73sf4YWX4bzqS5hazk+9/ywZLViW3Yyxfimj/70GTZ35yHPBe0BlkmfBNGiZf5RHnhU1waDvBPUVTQDUOOuwmx0EIr4ciSufPE8mOtvrPOuVvZA8N1W2Z6Sr0j/ek50Iem1FmeRZIBCUHCHOAkGJ0XsstyTyPJFs6yI7H/1mJw/+oIdDOwKgMmN5hnSjrKka+zb7ObDVz7xlDtZcU8WStS5c1dmXB9kgsWiNk0VrnESCKr0Hwux71c/RXSFGT8SIhbXJLAvKc26HLeRLcGBLkANbgwCYTBJVjWaqGk3UtphSj2473QasDgNWh4zRXOYOwWTnJndkQMjz7HCK8pzarCfVJ5FXOn5STCWTLVuaVYXo0ZfxPflNoodfgIz3JFPl1EmzrPI8sTN2eCOe469iO/892C/+OwzVHamwhtouQAYU3fqcVp4LIeT59KAnrjmbTlWee8eOcU7raiC55JPT4mKI/nQ6Qp6pr2hOhfdFxglG/bq/pdmQZ/G7EQhKjxBngaAM5EkVpZDnNPXtVj7w5QU8/9AwG387RDSozEie9WxDVSWOvR6ke3eQqiYzKy6qZNUVlTQvtCHnvJZsdch0nueg8zwH8ajKSG+M4/vDHNkR4sThCJ6B2ISoTC/PmR2ceFxjuCfKcE+MA5uTeUkS2JwGrM6kODsqDVTWmnBWG3BVG3FUGrC5ZExmGatdxmiRMFslJEnC6pQLPgY+JamOppDn08KpynOJ80pt0hnFCbx0F+N//ipaLFAgzdMpz6DFQ4Re+T+iex+l4q9+hHnhFTmZMXGuz3F5FkxJQXHN2XQq8pz5DrIkSTRWtnJk+MD0ZXgDyXPmUlS+8BjhWFC//LnHmJf/qcuzQCAoPUKcBYJyULDzcfLyHIsoJOIaRlNyn81p4Or3NrL8wkr+dNcJ9m/2zUieMx/bzswZDcb6Yzz34DCbHh2jucPKqisqWX5RBZUZS1lNYrLINC200rTQygXXVhEJKoyPJOjZF6Znf5je/WGGe+OoilaUPOeWXtMgHFAIB9SsfCXS9WYwSRhkCYMx+Yi3bEh27CbrKhVHb3IYsus/EsiWnFLJs1bw5VCBLqcozzMSsBnIc+6G+Mhh1GggP685JM8Aiq+PxOCefHHOiF+0POch5e8Q8jzrlFueT3h6sj43V7WTy2zKs0EysKzlXObXdBGJh9nW/SJjwZHTJs8VVjd2iysVzhfxEokH9ctfqH0R8iwQzGmEOAsE5aLE8nxsb5C7v3yYt396XkpgJQlaOm18+OsLOLQjwFO/GuDYniCJ+KnJ82QDHAsrHNsTontPiD/+aICOFXZWXFrJkgucuKpN+WIqg81lwOYy0NhhYe11blRVIxbR6D8cYeh4jBMHwwz3JJeaikc1EnGtyFm7JzvmUrqkE+GVuJZ84DSaUR5p8j8zl+dyzLYtOAnmrDzrRNfLa47J89QHQPHynFfOyd+VkOfTQu4pUiZ57vf2ZrVfLVXt+vJZqAwllOcaZz1fuPHbLG85H1mS0dAIRQP85Ln/4tFd92dXyizJc9XEetSTDPv7SaiJiU+SkGeB4CxAiLNAUE5KKc9o7Nk0zn//w35u+XgrSy+oxGBM7pdliUXnu+hc5eTIawFe/MMIh3cGCPqUU5bnyc+qonF4Z5DDO4P8ySzTttjGwnOddJ3voKbZjKPSqNvRlWUJq12i4xw7HefYgeQyOYm4xvhQHO9wAs9gHO9gcqmp8ZEEIV+CeFQjHlVJRJOzc2vqZMchszN4EktM6Xb0ZmepKsHUTC+fpZNnXaUU8izk+QxE0/uuyiDPfZ7jWde5hopmZMmAqimzKs+ybOCz13+Tc1rXpNKRkHBYXHzw0k+zf+A1Dg3tnfWR50p7NRZjWpwHfb35tS/kWSA4oxHiLBCUGA29u+SlG3keORHl5189yvlXVnHVu5uoa7WkwssGic7zXCw818XQ8Qi7Xhxn1wvj9B8OoyqTHfaTl+fJIImYytFdQY6+HuLpX0tUNZhoWmCl4xwHrYus1LVasFdMPcO10SRR02KmpsWcty8R14gGVaLhif+HVGJhlZBfmdieXIIq4FXy+umRoJqaqAyS5Zcm/8ggv0Oe3DDSG8c7mBDyfFqQJn4XOZtLIM966IqlkOc5J8+CIimzPI9OLEllMyfXcm6obMEgG1AVZVZHnhfWL2F5y2rdKnBaK3jTsps5PLxP51pSXnmuczZhlNPd6hPe49lhZlueBQJByRHiLBCUiXLKcyKm8upjo+x91ce6a2u44h0N2F3pn7MkQcM8Kw3zrFzylloGu6O8/oKXPZt8DPVE0NRTl+eJA0BVYbQ/xlh/jN0v+jCaZRyVRupazbQustHSaaVhvpWaZtO0S0xNYjRJGN0GHO5TX15qpjxxt4dX/uAD8uv+VORZUCzlkedcl0ttnqk8F/FVnjHyXOhYppHnqSiHPAumJ3XdKbM8n/AeZ2H9EiA54myQDcSViWCzJM/N7nZMGYK66fAzrGxbi93sBGDD4ut4/sDj7DmxfVYnDKt3NaW2KarCiH8gv45nUZ4FAkHpEeIsEJSarL5t+eRZQsI/FufJewd45bFR1l9fy0U31lJZa0bKmAXbajcwb6mdeUvtXPOBJkZPRNm32ce+V/30HQwTDasTo9H5S1UVK8+ZE6QkYirjw3HGR+Ic2hFElsBglDHbZOpaLRPrNVuobTFPPOJtSE7oJVO0WJedAiMdpyTPoiszA8okzwWYkTznRdaPPxflWafoUCCvqeS5UNjs8gt5nm0mrzHZ16LSynPvWHdKnJ3WCipsVUTi4XQZZkGevSEPiqZinGjo1nZciiynb7LWOhu48+0/5+XDT/HQ1ns4MLALRUuQlVMZ5LnZPS/1ORwPMh4eyzqwouSZ/H6CkGeBYO4gxFkgKAdTiFep5RkN/GNxnvjlAM89OMTKS92su76W1i47Flv2OlJGk5Qaib7srfVEggrde0P07Atx9PUgwz1Rgj6FeDRzBuuZy3Nmj0DVQIurJOIa3RMTjaUPVcLqNFBVb6Ky1khFjZGKWhPuehNOtwFnlRGzVcJokjGaJCQZjGYJSUrOnD35jndp0aYW4VOQZ8FMOIPkuUD8uSfPhcou5PmsI/fcLZE893uzZ9ZucrcxOH4iW+LKLM97TmxnwNtLa/V8AAxyflfWZDCxYdG1XNx5Fa/1bOb32+7htd5XCcdD6ZxKKM+ybKC+oiW1PxwL4Q178g5sWnnOTP+U5Vk0OgJBqRHiLBCUnPyOcNnleWJDNKyy+fExtj3tobXTxvKL3SxbV0njfKuuZFodBhavcbF4TXIJjXBAYbg3ynBPlL6DYQa7I3iG4/hHE0TD6knLc/r+d25nSSMSUOgPKPQfmdibUQcSyVFoq8OAxS5jMCTXZpZlCYNJwmyVJ+Kk/sHqkPNuGJBbVt0OeTJM7/6obv2XRJ7PYnz+IA/9+WlWLutiWdcCLJb8d9enJU/MyijPOn3KYuR5qq7omSDPhcs+A3kumIhe+YU8T8cjTzyH3Wph5bJF1NVUzTh+7g2Rcj623TvWnZVXs7uNHd2v5EtcGeU5mojw/Sf/jX+56dtU2tL1pWkaMSWKxWhNbTPIRs6bdyHntq9nX/9O/rzrt2w68jS+sJdSyrPT7MJlrUztC8X8+CNe3d/itPJcqH2ZqTwLBIKSI8RZICgD+h2X2ZFnkFASGsf3hzi+P8Qzvxmkod3G0gsqWLTaRUuXDZM5VyyT2JwG2pfYaV9iZ/XVVaiqRtivEPIpeEfiDB+PMtwbZWwgxvhInPGRBGGfknkAJyXPWd2InM6SqmiEfAlCvnQ9SBn/QmbHIVO6s+tNyv6Qvw10OnpCnotF0zQOHj3OoaPHecjwDIsXzMdd4cJqt88wIcojz0Ufx9TyfDLxzzp5njIRvfKfojyf5YyOjfPqseM889IW6muqWNLVQSwen1EaulJXBnnuHTuWlW/mWs6zKc/bul/mn+67nSuX3sTC+iX4I+M8tfcRxoLDXNx5FdevfDs1zvpUepIksbT5XBY3raTX80E27v0Tj+/+HSOBwZLIs93szBLnId8JVFXJaQ916ljIs0BwRiHEWSAoE6dbnicb0+Tj2AG69wZ56t5BnG4jC1c6WbTGxcKVTiprTUhy7sRgSWRZwlFpTE721Wah67zk5Cuqklx/WUloREMqnqEY3sE4vtEE46Nx/GMJ/GMJAmMJ/J4EiVQfUJsscPKvIuW5eAnPqaM5tFTVGwUN0BSV/YePoWoaBlmib2iUzq5O2ue1Icv6N20m4+acDhOUR56LllLdMhVmzspzXgJ6aU4vzwV2FS7HqcrzG4DJmhka9TDiGUdVVXoHR1i+fBmdizqxF3EDajbkeWC8NyvP1qp5U5ehbPKscXTkID95/tsYZSOqpqJNPKFwZGg/j+z4NVcuvZlbV99Ovas5VQZZkmmvXsjtF/8tbzn/fTy7/1Ee2flresaOoaGetDw7LC5cVndqW42znjpXI8P+gdMmzwKBoPQIcRYIyshckefJbfGYincoxtanxtj61BiSJOGuN9Ox3MG8ZQ7aFtmobjRjsRswWwsLjmyQME9M5GVzGnDXm2BF4XqIRVQiQRW/J5FaVioWTm6LRVTCgeSodcCjpJbNigRUopH0u9ZSxr/hgEI8qmXt0ftLyt44sU0iO1h27YcDOctZUSp5fmOhqsnvTlE0Dh08xMH9BzCazHQt7mTx4kU0NjfpKlG55LlQ/c9YnnUTyS3rHJXnPPT3TC/PBXcVLscpyPMbjcnfjnfMw0svvMSLz79EQ1M9i5csoWtRJ2Zz7msQ6Voqtzz7Ij7GQx4q7clHpJvcrXnln82RZ4CEmshrC72hMX639Wf8cee9XLb4em4+710sqFuCyZCsOwmJCpubm859N9evfDvbul/mjzvvZVffFkKxwIzluc7VhJwxK+eCuqV8910P8PttP+fx3Q8yHvHMujwLBILSI8RZICgxuR29uSbPmRN9aZqGZzCGZzDG9qeTE5k4KozUtFioa7XQ1GGlcb4Vd70ZR6URe4UBw0nMfG22ypitMhU1c/+S88RPx3j54fGyjDy/UZkUgXg8xr69+9nz+h7sdhudXZ0sXrKYuvq6rPDlkOepvoQ3qjxrAAWWqppSngsg5Lm0aCSv0QCDg0MMDgzx/HPP09baRueiThYuXIDRZJyon6nkMxmiFLNtxxIxhv0DGeLclgyQ+5XOsjznt4XJXbFElCd2P8Sz+x/lvHkXcvO57+Gc1tVYTekRfINsZG3HpaztuJQjw/t4Zt+fePHQEwyM96Tqfzp5bqpsJ5cKq5v3XfT3XLXsVu5+4f9jc/dzKKpycvJMfj9ByLNAMPvM/V6sQHDGoekL1ByV51SYiY9BX4KgL8HxfaHM9b04AAAgAElEQVRUKha7AUelEWelkfYldhascjB/uQNX1dl7CSn1Y9te035++IOdRee/9bU9p3oIcxJVST5dEAqFeW3nLl7buYvqmhrWz3dSpyfAJZXnwsxInnOy1SvDVPFPlzwXPIZTledCdV+w/MXLcwwrP/zFY1OUPpsXXyk66Jwhc6SyEJo6IXCKRnf3cbq7u3n+2RdYvmIpsmaYqNfC8plOiOzvaobyHFeiDPsH6GxYCoDVZKPaXsdocEin/Zob8gxJgX7l8Ea2dr9EV/0yrj3nr7i48yoqbNmTsS2oW8KCusXctvr9bD/+Mk/v+QO7+rYQS0SnlOcmd1t+XU/Q7G7nM9d+i8d3P8ivXvkfAlHfzOU5FVzIs0BwOjl7e70Cweki1d89c+UZwGqXqW+30rzARsO85Ah0Xasl+Ri3RcZkmb6zd6ZTSnl2JJpZfXPDtHmGggH6uo+zeuUSDAbDtOHnCqFwhD88/mxRYWVZRlVVXC4Xi5cupmtRJxUju4iAvoSVQp6L4FTkeSpRnyvyPBUzlue8gOjXvc6GmcizQYpzzYZzwV7PdBw7dIjGWjdNDXXThp1LPPvyVvqHRqYNJ0kyGhoGWWbBgg4WLVlEW1srP9+VvBk1nTyX4rFtRUnQ7+1LpWmQjTS6WxgNDBVov+aOPAMkEjH29u/kwMAufr3pR1yz4jauWfFX1LkaM2uaKnstVy65iUu7ruGEt5uN+x7lmX1/ZNDXl1d+WTJQ52pKfY4pMZ7b/yiXLb4+9Wi42WjhhpXvoqNuMd949NN4w2Mzl+dC7UsBeRYIBKVHiLNAUA6mGn2cY/JsNEpY7QYa5llpXWSnbZGdli4bdS2WgpOGzRRF0dDU5KRi6sTfiqKBBkGfQiKWnGwsOJ5IlkyF4HgCJWPC7txiRIIq0bCa2lOomMnyT30QmfXdvSecta9U8mxSnSzsqp2yHADjHg+hcS/LFi3EZDpzLtHjvgBQWJwNBgOqomCxWula3EVn58Ks95yVTG+YLXnWldw3kDzneutJynPWBGwllmeDprBwXiO4OwoXYIKAZ5R5bU0sWjBv2rBziS079xbcJwHIEqjQ3NLEkqVL6FjYgdlk0g0/G/LclzGztkE20FDRxG62T9F+zS15RtNQUBnyneAXL/03v3n1LtYtuIwbV72Tpc3nZi1nZTKYmVfTxfsv/nvec+En2N23jaf3Psy27pfwhsdQ1AQmg4UaR/rGji/s4btP/Cu/2/YzPrLhs6xqW4csGZAkieXNq/nKLf/LF373oex3qcshzwgEglJz5vTKBIIzjTkqz5IsUVljoqHdyqLVLloX2WntsmNzntzoZiySFNhYWCUSUgh4EvjGEgS8CYJehYAnnpwMLKIRCalEgklRDvsVVCVdB7n6mz7UjG3ZO7L3zCid7HqbbqmqUsnzGw1JkkFTMRhNLFjYMe3M2oXks2TyPG2mE5umkNK8zmghRz2T5Dkrzbknz29EJClZp/UNdXR1ddG1uAubzVZU3HLL8wlvTyotWZJpcme833sGybMmJUPEEhGeP/AXnj/wF5Y2reKKpTeyfuEV1LuaktewCYyykVVtF7Cq7QJCsQC7erew6cjTHBneR40z/TTRwHgPGhrdowf5tz98glvOu513rv0oNrMDgIV1y/jgxf/I/zzz1YlyZh9Y6eRZIBCUGiHOAkE5mSPybDTKNC+w0Xmui0WrK2jqsFFZqz9ioYeqavjHEvhG44yPxBnpi+IZjDN6IkbQlyAcUIgEJmbHzuoc62ijlKO2p7jOc+qvM2SpqrMeCSRNQjbINNXXUlNTxYUbNiAX9di5pNuRzPrzJOU5txuZ3JYve6n9hURR0zNVnXLqlvU0y3MhTlWeU+e6kOdTQZYlVFWjrqYKq9nCxZdvoLq2Ztp4el9tOeW5f7yPhJrAKCe7kM1VbXnn/Zkmz5Ps7d/JvoGd/ObVH3Nu+3quXHoTK1rWYDVl37Swm52sW3A56xZcTiDqw2F2pfb1j6dvLMSVGA9uuZsR/wB/d9W/YTEm07mo82oe2HoXA74+3WuGkGeBYG4ixFkgKDHJDnmRk0aVUZ5lSaJhno1VG6pYeamb2ubk+8nToSoaYwMxeg+FGeqO0H8kzNDxKKGAQiySXD4q3R7rPcqd/e503hFMtOwzk95SyPNkoSdDz648vxEwyDIL5rdy7vLFLO3sYPeBI3gDoeKkOeOcKoc8F872JOS5UPnnujwXWf6p4hZ8d7KM8ny2I0lQ7a7kvBWLWbmsC1k2sPGlLdgd06/dPIneqV4uefaHxxkPeahxJt8lb6lqzy/DGSzPmgZjwWGe3vsIzx94jCb3PC7pejOXdL2ZjrpFecfktFRkfV6/4Eo+e+2d7OrbwqGh3Yz4B9jRs4ntx19m/YIrJ+K46KhdnFwXW5J0rxmlkWeBQFBKhDgLBGXidMizJIHNZeScS9xcdGMdrV0OjKbCLWgirhELK/QdDnPktQDH94XoPRAiElJQEhraRK8121FyjkDLlef8icemkmdZBoNBQjZIGMwSFdVGKmtNuKqMOKuM2F0GnG4D9gojJouEq8qYXEfaKmNz6jzyO22HYeoAT90zxiuPjAt5niEOu43PffIO7Dbr9IELkTpnZkGetcw/37jyPFU5ZyTeGfFLLc9nO7ddfyUupyP12TPun3kielJIcfIMzGipqmA0gC/sTYlzfUUzZoOZmBI7q+RZkiCuxDk+eohfjx7m/s130VG3iA2LruWihVdRX9GUmvwrE5e1kssW38CGxdejqAqqmpysw2hId7klScYwMWKffzOZjN9SEfJMfj1rWnqfQCAoHUKcBYIyMlvyLElQ32Zh/fV1rH1zLRXVhSeOCXjjDHZH2L/Vx+GdAfoOhYlH1YxQ0qS7pAqd3aDndjIyBDujNc+VZ2QJm8OA3WWgosZEXZuF2hYz1U1mqupNuKpNOKsMyPLpvVUuZQ6OllKez3KMRgNGYwlmAS+XPE+Z1/TyDEUK9Bkkz5LNjRYYnvvyfJaTKc0nR/p8OBl5TkbNvX4VludgxI8nOEpHXRcANrOdSnsVw/5BskNPlunMlufJSAklxsGB3Rwc3M3PXvweixtXsHreJVx3ztupduRP/CghJR9nl/O72v6Il6MjB/LKflLynDqmN9hrQQLBaUCIs0BQcnI7i+WV5/o2G1e+o5FzN1TjqNT/SXsGYxx+zc+eV8bp3hvEMxDLeOSyCOktQp5zu2tWh0x1o5n6VgstXTYaO6y46824601YbHN7KauyPLYtKJ45KM+Fy6pnqjrl1C3r7Mpzbh1U3/EwgY3fIrr3UbREVMjzGc0UUkVx8pyZTOpPnR+aoqnJR4wnsJsdVDtqGfYNZItrRppnhzynIypqgj0ndrD3xA5aqzq4bPF1qRAnvN3UOhsxGy3oMejr495X/pdez1Hdsp+0POceo0AgKDlCnAWCMnCya/3ORJ6dbhOXv7WRi26sw1WVP8IcDSns3+pj61OjHH09iH8snpZliYy8J8Q45+76TOXZ6pBp6bLTvsROxwo7dW1WXG4jFntpJFlVNEL+5IzckYCKqk3MzK1mh0vENCJBNS++bldCyt4jAcPHY4CQ59NOOeR52rymlmdN09c5XbGci/KsJLI+m5rOwf32u4gdfpbA098gdnzzFGkKeZ6raKnqPTV5nsk7z32e46l4NpOdqskRV935Jzgr5Xmyqqoc6QncxsNjfO6BO3CYndRXNFPrbKDGWY/RYCQQ8dPnOcrBod14giPZ53xO2U9Kngu0UwKBoHQIcRYIykS55BkDrLyoils+1k5dqzWn0wG+0RjPPTTE1idHGR+Jo6rpzmfhEeyZy7PBIFHbZmHJmgq6znfRttiG1WHAYCy+wdbU5IzdqqLhGYrjHYzjGYrjG47jG0vg9yQIeBIExxXiEQ1VTa4BPXkDQM1b5zkpTKqao8NSdpjUHik7dqqOZvKdFSnPgqnR0OmgllmeCwntlCPPBb7KM0GeQ9t+hXXFTRhrOlKBJYMZy6KrMXdcSnjbLwk89Z+ogaECac6B2bYFBZlNee4d607FkSSJ5qr2wuKaUcCzUZ7n1XSmtg6M9+ENjjAaGOT42OGsY8j9jeRP6llaeRa/HIGg9AhxFgjKSKnl2e4ycuOH2rjkLfVZ7wJrqsaJI2Ge//0gW54cTc58TbYE6uU/E3mWJLBXGmjqsLHiokqWrqugtkX/UbS8etCSI+DRkMroiRgD3RGGjkcZPRFjtC+GZyiGppLK+OSlV6/Dlj06MP2s3SfxnRUlz4JiOCPkOSuL9BMVc12eE4P7GPnBBhwXfxzHhR9GdtanD8Nkxb7uw1hXvIXgs98mvPWXqGGPrjzrUV55FkxLlliVX56H/YPEEjHMxuTkWM3u1sxivGHkudJaTYW1KrVlyNeHoqn65der5zLKs0AgKD1CnAWCUpPXby6NPFfWmfjAF7voWlWR1Sh6BqM8/qsTbH1qlHBA0Z1t+1Tk2eY00LbIzqoNbhavraC6MX8W0VyUhMb4SHKd5579IfoOhhnpizI2GCcWyhwOLjzb9slJL6ewznP55VlQHOWQ56luXJyKPDvXvZv46FEi+55BU2JzXp7ViA//U98gvPO3uK78LNYVtyCZ08seyY5aXNd/Hdt57yLw9DeI7nsMTYnlde71KJc8C4pkFuV5NDBEOBZMi3PVvHyxewPIc0NlS1akAV8fmqYWLv9syrNAICg5QpwFghKj10UvhTw3zrPRdW56vchEXOOVvwzz+D19jA3G0vFyGuuTlefG+TbOf1MVKy5yU9dqmfYRbO9wnJ59IY7sCnB8bwjPUJyAN6HTgGc//p3XfZpGni1WCYfbiKPCiM0pY3MZcFUZMdtknJXJd6qtDhlJlnC6jUhykd46EWjTw+O89qy/9PIsmBGllmfdjmQRQpsre1oighrxIVuTv0VzyznUf+BnhPc8gfcv3yR2YveckWdj7ULs570DTVMJb/s1SsZ7qYmRw3gf+Djmbb/C9aZ/xjz/QjJHz41N51D5jruJHnic4MZvEe/bTjG98XLIs2AGzJI8ewIjhOMhKkmOttY667GYrETjkTeUPDdWtmYdQ7+3J+d4TqM8CwSCkiPEWSAoA6ey1m9Bec7A74lz338d5fWXPCiKXufj5OTZaJRZsqaCi2+po2OFE6tj6uWFevaH2LfZz4EtPga7I0SCKqqW23BLeY+35b47nXsEkpQcYa9rs1DXYqa+zUJVgxl3gwlHhQGDScJgTP+/lDirAtklLZE8ixGAmVNyedbNRCdu3va07CU8fYw+8Dmq3/LvGJzJCZEkkxX7qpuwLr4c/ws/Yfyp76CGfadNniWzHefFH8N52d8h26sBcF701wQ2fpvgpp+gxcPJ8KpC9NBzxI9vxrriFlzXfBlDZUu6xoxmrMtuxLJgA+Ht9xJ45k7U4JB+PU5XzoyyCnkuM7Mgz4GIH29wjMaJ88Vtr8ZudibFOVfszmJ5bqpsyyrXoK8v79QV8iwQnD0IcRYIykS55Ln/WJj/94V9jPRG02GmWedZL+/MtB2VRla/qZoNtzVM+d5yOKDQdyjEzme97H3Vh2cwxmSCWR0FKecICqzzbDRIWOwylXUmWrvstHRaae600dRhxXzalqzSyO6OlEaehTmfHKWV50KZ6MTN2z4he6pKYPN9hPc+ifvN/4hz/e3IluQ6vLLVReVV/4Bz7Tvx/Pk/CG3/PVrMP+O80sc+M3mWjFasy66j8tovYqxdmBVEdtRSccPXsa/7IP7H/o3Ivr+gJSIAqLEw4e33Etn9MM7L/xH7uo8g29PvbUrWCuwXfhTrqrcRePJrSEbrFJU5RTkzyirkuXRoE//LagNKLM9A3pwN/d5eljSfA0CVswantYKx4EjWb+9sl+fGjBtNmqZywns8/xgLlb/M8iwQCEqPEGeBoIyUUp41oOdgkB//y37GBpLSXPhxa/38c/OuqDax+k01XHprPTVN+sIcj6r0Hw3z2vNedr3gZbg3ms45o8OS3aDndjKSeyVZoqLaSG2LhY4VDuYts9PYYaWyNn85rRmjQSyqoirJMgPEYxpqIl9YY1EVbXLFqqx+ikTAMzlVd2nlWWhzERQQpbLIc+4XMhN51kAJjDD6u38msPW3uK/9PLZFG5Am1m01VDZS+47vE7ngPXj//HWiR14CNTGjvNLHXoQ8SxLm9jVUXP05rF1Xglz4SRFjbSdV7/4Zkf1PEHj6m8R6t4OmJm9uxUL4H/93wjsfxHnFZ7AuuwHJZEvFle3VVNz0X6BlTGePpP9oul45c46zaHkWTI02+Z/yyXNumgA9Y8dSm20mO5X2KhjN/+2dzfLc7J6X+tsTGiESD+sI7RTlL6c8IxAISo0QZ4GgzJRKnj1DUe752iHG+qNTNPTFybPVZuTim+u46MY6alusuh0k32icnc952LHRQ8+BMPGomjdiXMw6z0ajRMM8KwtXOela7aKpw0pljRFJ1sl0CqIhFb8nQXA8QdCr4B2JE/Qm8I8lCPlVQj6FWFhFVTRikaQIxKMqSmKiTiaz0yAWVicmHUpvlzL+hfxOY+lGngVTUi551slmqryLkWckiHZvY+in78O+4jrcb/5HzM3LkwElCeuC9TR85DcEd/we39PfJT64f0Z5pY+9sDwbqtpwXfa32Fe/G9nq0jsq4gN7CG//DbaVt2JqORdkA9al12LuuJDwtnsJvPA/KGPdqXwSg3vw3v8RLAs34LzqC5jbLkhXviSBlN91KKs8C6anwDWolPKc+9j2iZz3eVur2tnVszUz27NaniVJoqEiPeI8FhwhEg9lRTzd8iwQCEqLEGeBoMRoFCdQMxWxwePJ9xILLVU1GW8qeZZliVUbqrjmfS00ddh0O7SD3RFefGSInc958Y3GMxrf4td5liVo7LBxziWVrLi4kpomMxb71O9LT5KIawz3RBnujTJ8PMpQb5ThnlhSjKMq8YhGIqZSnPRmbMveke5gTDnbdna3R8hzedHp+2bvPxV5ziP3fJ4m7hTyrMUjBLc/RHjfM1RccgeVV3wS2ZF8t1gy23Be8C5sy67G/8L/4dv432jRYNF5pY89W0wlkxXn+jtwXfa3GNzNukephscJPPcDgpt+ihocIfjK3djXvAfX5Z9GdtYhWytxXPRRrMtuJPjCDwlu+jFaIpbMR00QPfg0seObsZ37NpxXfAZDZatuTRYqY3q7kOdZYZblecDbh6IqGCaecGh0t5D5zZ3t8lxlr8FmdqQ2j4fGku9450Q8ffIsEAhKjRBngaDUaJP/Kb08Z4WZgTxLEjTOt3Hrx9tZsqYib7RXVTR6DoR46r5+9r7iSz3qnHTTybAT3a4C8izJ4KwysmqDmzVXV9O8wIbBVLjrq6kQj6kEvAmO7Q7Ssz/MiYMR+o+FScQ0VIX8tl/KVOTppDejEif/0u2wFSPPmbmenDwLiiFDgEssz/pfQYF1nk9CngHUsBfvE98lsOUBqq77PI7zb0096mxw1uK+9vM4174bzx+/TPj1R9ESsRnLs2w0Yum8DPfNX8NUv0TXSLVElPCuhxl/7Ksonl4kkr9nNeQl8PwPCe98ENcV/4h97fuQTDYM7lYqbvgP7GtvZ/zRfyV2aCOoyZn6taif0Cs/JfL6wzg3/D32dR9GsrgyyqRm5y3k+fQyi/Lc7+lBURMpcW6vWTDxLb4x5LnaUYfZmH7FqX+8FzXrNQYhzwLB2YYQZ4GgHEwhULMtzxa7gUturue6D7RgsWWP+qqKRvfeIBsfGOS1FzyoSrKhnW6pqswG3miWaO20c8G1Naza4MbmKjyyHIuoeIfiHH09wOGdSVke7Y9mtO+Z705nlWSyAnM6C7Mlz7mhZ/6dFTA3QSYaE99v6eW5MKWVZ9BIeHoY/vUn8G+6h6obvohlwTok2QhIGGvmUfe+nxI58Czex+8kemxz8v3n6eRZkjG3rKTiTf+AfcWNIOs032qC6NFN+J78BtHDLzD5w0qVc6LyFN8A3oc/Q3DrvVRe80XMCy5BMlowNiyl5v33E9n3Z/xPfZNE/2tMTgagBkfxPfYlQtvvw3XVv2JZuAEkA5Ht9+XVc6nlWTAN+afgrMjzoK+fhJrATFIe61yNGGUTcTVGZonOVnmucdRjMaTFuXfsqM45fvrkWSAQlB4hzgJBydHS/znN8ty4wMZtn5jHkjWVeR3Wwe4wT97Xz/ZnxohHtJyGeaoR7GSGRpPMovNdXPyWOjrPdWIy68+CHQkqnDgSZt+rfg7tCDB4LEIskjEzF5kdhemXqjqj5VkwPWeFPCeJHHmFwR+9Fcd5t1J51d9jaliUDCTJWBdfQUPHBQS3PsD4k98mMdZdMC9DZSOuyz6Oc937kG1u3SNIDB/Cv/G7hHb8Di0WzDy07HJmZBDv3cboPe/CuvR6XFd8ClPTyuT7z8tuxNxxKeEtvyD4wg9QfCdS8RKDe/Dc935MdYtBNqAM7tEpdGnlWVAEuWI3C/IciYcZ8Q3SXrsAgIbKJowGE3Elli+uZG86G+S51tWAnDER36CvTzef0yXPAoGg9AhxFgjKyWmSZ1mSOPfyGm77xDyq6s1Z+URDCs8+NMjG+wcIjKdn+i1mnWcJCUmGznOdXP3uJhasdOquo6yqGr37Q7z2wji7Xx7HOxAnHpt8/Dt/tu3cShPy/AanHPKcg2v1rUSObiG05ymSo6rlkWc1HiGw+V7C+5/GddEdVFz2MWRbJQCS2YHzwvdjW3Y1vo3/Q+Dln6FOSK8GyEYzjrXvpuLKv8dY06FbVWrUT/Cln+J/7r9R/EPTlD9fnrV4hPBrvyN68BkcF7wP5+X/gGyvQbZV4rj0k1hX3ETw+R8Q2nJPcv1nDVDixAdeT2VRqMMu5HmWOQ3y3DN2LCXOta4GjAZjYXHN2XSmy3Ozuz2VTkyJMRJIr3E+J+RZIBCUHCHOAkEZONlJo0ohz7Iscf0dbbz5Pc1ZUqtpcOR1Pw9+v5veg8GJtlYqmHde/kBdm4XrP9jCigsrMeaOMGsQDipse8rDq4+NMnAsTCKebsrTDXr+UlXJDrZODc5Zec4paRHfmWCGlFqeczDVL6Tpr+8htPsJRv/wNWKDB5NffRnkWdNA8Q3i/cudBLf+lqqbvox9xfWpZaMMlc1U3fzvONa+G++fv0Zk35NY5q3FfeNXsLSv1l1eSlMSRPb8mfHHvkZ86ACTj1RPP+FZvjwDqGEP/ue+T3jX73Fd9Tlsq96KZLRiqJpHxU3fxHb+u/A99hViR56dyEQ3+fLIs2BKtJwPsynPmTNrW4xWal0N+MLjbwh5zhTnYMSHL+yZsoyzLs8CgaDkCHEWCMrE6ZBnm8PIOz41n7VX12W1npGQwuO/OsEz9w9MzEitn38hebbajVz6lnqufm8TFlu2MGuqxlBvlFf/PMqrj40S9CVgsnQZHZbsztCZLs+TXdXJ0MV8Z4LpyOv0lVCetViEaM9rWNpWpoJJRjOOVTdgX3Yl3o0/xvv0j1B8Q2WTZwmV+PBhhu7+ALZFG3Bf+3ks89YkxViSMTcvp/5D9xLr3Ym55RyQdF5/UBVi/bvx/unfiOx/Knkc063zXKicuQejaSTGuvH+9uOEXrkb15v/FcuCS0E2YmpdTc2Hfo/3/o8S3vGbfEEuUCfJZE9RngXToOmK3WzIc2/GWs4ALe52jgwdSCd/lsqzUTZRX9Gcih+I+vGFvTpCLORZIDibEOIsEJQDvY5KmeXZWWXk9s93suKiqqy0BrvD/PZ7x9i3ZRwkdDofU8tz2yI7t36inQXnuPI6uQPHwrzw+2G2P+Mh5FemfFf57JPn3NDTfGdCAIqiXPKsxkL0//gOqq/7NM7VtyJb7KmgkslG1dV/j/O8m/E8/n0CW36HGvWXR54lQFMJ799I5NhmnKvfTuVV/4CxOj16ZW5dpVs3ibFu/M/9iOCrv0CNBjLSzRfTk5bnibix45sZ+8V7qXrHj7Euu2GiogxYl16fFGe9eAXqpFAZC5YzI37hZwYEuZwOee4bO54VpqWqPf93chbKs9PiwpExu7wv7CEY9SfDSNmlPF3yLBAISo8QZ4GgxKQey51FebZXGLn9nztZsb4qI03Y84qX+79zNDlz9US8qdZ5zsxbRmLN1TXc8jdtuKpMWeH9njjPPjjEpj+OTIwwAxS/zvMbUp4FU6Nl/1kOeY6PHGPoV5/C9/K91Nz0eWyLLsmKb6rtoO6d38K19m14/vIdQnufzpe9UskzoEWD+F+6m/Cev+Da8DFcF9+BbHHmH1c8TGDTz/E/+0MSYz3JzPLSLaE8SxKmeeuoePO/YFmQXUexni0F05uqTgqVsWA5deILCpD125ldee7NEefmyRtAZ7k8u6yVuKyVqXj94z0ZieS2a0KeBYKzBSHOAkEZyH3vuJzyLBng/f/SxYoLs6X5lceGeeAHRwkHkutKFp4lOz9/WZa44UMtXPH2JowZazGrqsbO5zw8elcfIyeiE0WY3D/R7RLyLOT5ZCkkpakNpy7PqArhQy/T9z/vxHX+zdTc9M8Yq9tSwSXZiK3rIqzzVxPY/jCjj/wHiqcnJ5MC5TwJeQZIeE/geeQrBLfcj/uGf8G+7JqJABqR/c/g+eNXiJ14HTS1oJQm0z11eTa4W6h48xewrbwNyexIRVGDo/if+gahV+7Oz6fc8iwMYEq0yX8KtBPllOch3wDRRBTLxHrGTe7WvPYvlfxZJM8Oa0XWiPMJb/YNhDkhz+J3IxCUHCHOAkGZmA15lmWJd35qAedkPJ6tqRrPPjTAA98/NjlZcF68qeTZbDVw2yfbuejG+qxG2jcW58HvH2fHs2PZZZ5mnedTkWeYOp0zSZ4FRTIL8iwBWiyMb9NvCOx8lKqrP0nlhg9icFSnokgmC64L3o5j5XV4n/4hvud+ghIYmb6cM5BnyCinphI78TpD//cu7EvfhKXzYqJHNhHe+05JGMIAACAASURBVARo6rR5pdM9OXk22NzY172fiis/g2RNC4Ea8RHefh/+p+9E9WfOGjyL8iwojtMgzwk1zrCvn9bq+QC0Tfx38pqXfR08e+S5tWo+csYcBAPeXp3r1WmWZ4FAUHKEOAsEZaSs8ixJXHpLIxfd0JAKp6oaz/9+kAf/+xiqqnfXf2p5Nltlbv14GxfeUJfRoYfDr/n5zbe7GTweLiKd0slzMemcOfIsKJpZkmcANexn9JH/xL/5Aaqv/yzOVdchmWypaLLVRfX1n8O1+q8Ye+xbBHf+ES0WnrqcRcqzbjmB0N6nCO97srg6OUV5lkxWbCtuwHXFpzE1LU8lpilxooc24nv8a8R7t+sKrZDnuYOOC86KPCtKnAHviZQ411c0YZCNKGoiXYazUJ4bK1pS4eJKjGH/gH49nUZ5FggEpUdnyk6BQHBKaKl/Jj5qGdszPhfaRrKxzE9Wy2oN2xc7uOGOtqwlp7Y+Pcrvf9SNktB089bLf/KzbJC4/o5WLrqpHlme6CSosPnJEX76lUMMdofzy6OTTmaG2Yeh5VSNRtbHiQg5NUE++enkhdJy09bIrgotN2hu6KzCzyydnJKKHszJkf8zydkg5Z5K+Unkbk99znn/T4PYwEEGf/5x+v/vDiJHXmVyeadJTA2dNNz+Q5r++pdYF6wjNeN1oXJmbZ/53ZPJJy70y184r6ni59aHuX01NbffQ9U7foSpaQXJnrdGfGAvnvv+mrF73k28d7tu3IL5aFN8zN2nd4xT5CWYGr3fQ/51Oj9C3hVU7xpX4FKWUBUGxvtSn01GM/UVjVMULreJ1LnO5jZbutfiyTLp33zJ/qzXnhYoQ6HzN6cMTe706x3xzDWc9eopr13TO8dz25Zpyp9XTtHWCASzgRhxFghKTHbzmjH6WMKRZ7PNwK0fm581adexvX5++70jRMKJ7HQobuR59ZtqufytjSlpRoPNT4xw/3ePEQsnJWLKdZ4n0hHvPE+eATkjz6JTMy1Z50HOBv19JVznWQNNiRN8/QnCB1/GdcHbqLnhcxgq6tJxZQO2JVfQ1LGWwNaH8Dz6DRLe/sLlzNpe/DvP6e06o7JF5DVVfE0Dg6uOiqs+i2PNu5Ay3tNUw+P4N36H0Cs/Qw2NJTdK2XHFyPPcJufSOrGtfCPPmqZxwtub+ixLMk3uVvoztp1t7zwbDSZqnPWp/bFEjNHAYFaEuTLyLBAISosYcRYIyoD+KGb27eRTGXlef00dS1a7U9uCvgS/uvMwfk9cPx2dW9mZYWqbLLz17+ZljV5veWqUX995JCXNqTh6d7ozjqNcI896d+hz09G705+ddu5dfS03aG7orMKffDrCmqcn3SnOIv9nkrOhtCPPAGo0wPjzd9P97xfhffp/USOBrOiyxUnFRbfT+vnncV/5CWRbReFyZm0vPPJc9IhuXpr62/XiSxYnzks+RsOnX8J58V+npFmLhQhtvY/Bb1+I/5nvoIQ8BdMUI89zDy37Qqj7eyjnyPMJT3piLEmSaKhs0R8RzSuTfmFzN6U/612LJ8ukf/Ml+7Nee1qgDIXOX03DarRR40y/IuUNjRKKBaeu44m4eZcivYtaflUVLr9ePYvfjUBQNoQ4CwQlJ1cWSyvPVruBa29vy7qr/MefdNN7MDh1OgXk2WCUuO2T87G70g+gHNnl5/7vHEVJaHn5C3k+uXREb6YItLkjzwBKcIyRB/6Vvu/cRHDno2iJaFYSBmc1Nbd9lZZ/+BOOc29CMlr1y3ma5RmDGeuSq2n4xF+oess3MbgmRstUhcjBZxj5yV8x9pu/QfH2ZSRT+IVJIc9zj9Mpz/2e9OiyhESTuzWjTDr5n+HybDFaqXbUprYPjmf+boQ8CwRnM0KcBYKyUD55vvD6BqobLanPx/cHeP4Pg8Wlo9MaL1lbybIL0utRBrxx7v/usdQyVrn5p9IR8jzjdARFMMfkWQOiPa8xcNcHGfjJh4j2vJaTkIS5ZTkNd9xF44d/jqXtPP1yng55liTMredS8+7/o/aOezE1r0gFSYwcZuz+TzB697uIHnmJ1DvdeuXUKetsyrOgOE6XPA/7h4jGI6ng82oW5JRJJ/8zWJ6dVhcVtvQTXwO+vuLreCLRWZFngUBQcsQ7zgJB2dDIfsc3+Tn518m982wwymx4S1N6m6rxyF3HScTV7HSnSicjb4NJ4rLbGjGa5Yk8YOODA/QdDpL7olTuO1b6M3mKd54LpyMoGk0CScs+DyCz0gvsK+07z1l+q8QJ7vwzkcObcK17J+6r/hZjZfpxTclgwr78aqwL1uHf9Gs8T34PxTeYcy5nplned55lRw0Vb/oUzrXvQbanl6tTIz4Cz/2QwMs/QZlYXmom6zyfrneeBcWRnmdB/53h5J+lfec5GPUz7B+ktXoeAKva1+C2V+GdeORf913cM/id51VtF2TF6x3rzok7TR1PJDob7zwLBILSIkacBYIykHs/vFQjz4vOraC+Lb1UztG9AfZv8055t1svncnPTfPtLDwnPTnQcF+EFx4eQlP1G10x8pxd+JNNR1AEc3DkGUAJePA+8yN6v3kl48/fjZaIZSUl2yqovOKjtH72GSo3fBjJZJ0izdKPPGO04rzgvTR96lkqLvtESpo1JU5o+4MMfvdyxp/4RkqaC+alV06dsoqR57nHbI88e0MedvfuSAVrcDfz+Zu+jjvjhs3ZMPIsSTLnta/ngxs+lZXGjuObdOJOU8cTieZdivQuavlVVbj8opkRCMqKEGeBoNRo5DSSpZPnFRdVY8yYwGvzE0NEI0qewBYrz0svqMRiN6S2bXt6hIA3noon5Dm7PKm/TkKeRX+mCPJ6hnNTnlE1EuMDDN/3T/R95wZC+55FU+IZkSSMlY3Uvu1OWj71KPalbwKjuUCapZFnSTZiXXQ5DR9/hOp3/ABDVSsggaoQPb6F4f97KyO//BDx4SO5K20VzkvI8xmBXv3PpjyrqsoDm39BMJqcRE9C4opl1/HTjzzMbWvfk3qs+f9n777jm6j7OIB/knTvvXehQKHsMmQvQaaggAooisoe7j2eR/FRcaFMARVxT1SGqCjIEGTv1QUddO82bdrknj/apk1yuSZtSgef9+ulJJf7/e57l0vuPs2N1hqerRTWCPNqjyUjX8Tr0zbC2a721KYjifuQmHXJSFuGZ6K2hodqE1lc7Rau9vAsAY09bNtKIUdU99oNdmlRJS4cya8zVd1Dp+s7bFthJUP77i7a9hXlGpz8O9egnfhhbzxs29zDtpmcpQmoWa7QOyax5R22XbfPsqTjuL72bjh1Hw/3W5fBJjBaZxq2wd3h9/DnKDn1C/J/XwlV2rnav6SYeNg29A/zBHQOabb2jYLryEfh0H0yZFa11z+ozE5A4Z7VKDn2FQRVidH2RpeHwbzzsO2WSmz538jDtk9dPYrPDnyIh4YuhVxe9cfYQI8QPDV+Oab3vR+7zvyEfRf/QGJ2HNSaijpdtczDtmUyOfxdg9AttA+GdBiDriGxsLd20BknvSAFq3cvrw2vdWswdRlXF9QUh20TkeUxOBM1idotu6XCs7uvLdx9aneKM5KVyEqrvSCLth8Tw7ONnRzegbVXAS4uqERaQqloO4ZnC4VnqldrDM9CZTmKjn6P0gt/wXXwA3AdNg8Kx9rDVGVWNnDqdQfsOw5D0cFPUbB7FdQluSaHZ2O1y+w94DpkLpwGPACFU+39pjXlxSj+52MU7l0LTUFanQb68946wjM/P/WpWrbNGZ4FAfh031qoKlV4eNgy2FrXblvCvNth7vDHcM8tDyEpKw6H4vbidPIxxGVcQF5JTosJz3bW9ojy64zOgT3QK3wA2vl0hHudq2fXdS03AW9sewrJuYmAsRqaOTzXfEyJyHIYnIksTNB5ZLnw7OJhrXPLqJS4ElSUq0UucGJaeLaylsPFo/bw0cxrSqgrBIkNPcNz48Izmao1hmeg6vZVub++jaKj38Fj7JNw6jUFMoW1tluFowfcRi6FY49JyN+5AsXHf6g6R9qE8KxTo0wOp153wnX0E7D2igBk1WddCRooL/yO/B2vQnX9HGqOyTYWSqv6bfnhmUzXnOFZVanClv3rcfLaEcwf8Rh6hfXX2T4427kgJrgnYoJ7okJdAaWqBMm5SUjMvIyL18/hWnY8UnKvIqsoHRpBg6rTgASDYhsenuWQyWSQQQZHWyeEeIYj3DsKYd7tEOXXGaGekXC0dYZNnaM29Gk0auw6+yM2/f0eckvqXCfAWA3NHZ6JyKIYnImagMEm3gLh2cnNGlbWtZclyEpRVrURvTpo/eFZrgDsHGvPby7IUekXz/CsN9XGhOea/5NpWmt4hiCgIisJGZvno/DAp/Cc8BxsI/pCVn34KmQyWHuFw3vWGjgPuA9525ZDGf8PIKir+5T45VluBduQnnCf8BLsIm/RKV6Vehr5O16B8uKf2sAsukwYntuc2u8X/e+pOuPcoPAsCBqcvnoUizbPRO/w/ri7/xx0D+0DR1snnXqsFdawtndD58Du6BzYHeNr7+KG8soypOenIqsoHZmF6cgpzkJBaS5yS7KhVCmRX5oDQRCg1qiRU5ypLdLZzgUONo4AZHCyc4ajrRPcHDzgau8Gd0cveDr7wMfFHwFuwTrnKde7fAUBBco8HE3cj68Ob0B8Zu05zTKx9ZfhmajNYnAmaiKWDs9OLtY6/ZcWV9ZOqyHhWU+ZUm0wbbF2rSE8A9L9NF94JnO02vCMqjbKuH+QtuqOqttXDV8Aa992OiPZRfSF38IfUHz0G+T/9h4qsuJRu37qhmdr70i4jlwKp553QGZTe65lZV4KivZ9iML9HwEVxSILUGSZMDy3Oca/p+qMc4PCMyCDWq3G4fj9+Dd+P9r7dcKAqOEY2GEEwr3bw9mu9toaYmyt7BDqFYlQr8iGLAqLUGsqkVWUgfjMCzh45S8cTdqPzIK0OgtDfDkzPBO1bQzORE1BLIg1MjzrB6+6wblqko0Lz44uVqLTFmvX0sOz4d52CwjPJE2AeKBD6w7PmopyFB7YjJKzu+A68H64Dp0LuX1tcJAprODc9x44dBqBwn0foXD/JqhLcrWhVG7nCucBs+E6dB4ULn61ZalKUXT4MxT+tRqVude00zP1Ps+tKjyTtOrPTtXXVcsJzzVtr6RfwJX0C/jy4EYEuAejU2A3dA/pjUjfDgjxioRr9VW3m1NRWQHS8q4hOTcRl66fxYXrp3E9/xpyi7N1tr6m3Oe5pYRnIrI8BmeipmLh8FxZoXsPGWc3a4OdF7PDcx02dgrdNq08PLe8w7ZBpmiD4VkQBKgL0pG743UUH/sBHhNfgGPMGGjPTQagcPGF+9in4NT7TuRuX47SMzvh0HkU3Mc+Axv/TjrjKi/vRd62/0KVfAo1h3jX1t4GwzOZpgWHZxmA8spyJGbFITErDjtP/QA7azs42bnA08kHYd6RCPGMQKB7MLxd/ODt7AcfF1/Y2zhadBEVlOYhozAN1/OTkZp3DVez45GUfQWZhelQqopRVqHUDcoG29PWFJ5NXixEZCIGZyILq/7jv85G0xLhOf5MAb5fkwAAkEGG5MvFuuPUTN/E8KwsVWPruqvacbJSRa7QzfCMum9W48Iz1cd4+Gwb4VkGAar0S0jfeC/sowbDc+KLsA2KqbrgAADI5LD2bQ/f2R+hsiANVm4BqHvhr4rMOORtX47SMzsgaKqOODEplEotE4bntqWFh+fa6QtQqpQoq1AiuygTl66fBVAVVOUymfYiXnbW9vBwqjo/2dXeDXY2DnB38ICN9r7oMjjbucJKYYW8kpyaQahUVyCvJAdKVQkKlPnIK8lGTkk2VBVlEKovPGbsj8j6V9tuzeGZiCyLwZmoiVg6PGenlWHnlqpDMnU2oyI7L6aE57LSSuz6LEWnH/2+GZ4tF57JNG0+PMsAaDRQXtyD1ITDcOl7D9xGLYGVR3DtqHI5rNyDtE/VRZko2LMWRQc+gUaZX7dT00OpsTqNzH9LCs9kplYSnkVrEARoIGjf+OLyIpSUFyM5J0mnsUz7P50HBoNqn4uMA2PbL4ZnIhInr38UIjKPYPio+pgpg1cEw2G1h1fVfUXQa6a3o6k/DBA9x0nQnaBp/ehNW6yd4RnYhtPXn3b9/egvjzot9JaR7igic2BQnmE/hqOIvGc6i0LQH1V/bJ3iGQBMIOj9oUFkoQliw/XbibQXf00mOS1Af/2rO57eTcbEpmXQp0ynP0GlRMG+TUh9bzwK9qyDRlmoOylVKYoOf4G0leOR//tKaErzxZeJ0drFkqroQyP9GrYXnZZOn8ZTr8l1iuR9Mk7s+7f260rsewp6w8S2WUb61/8aN7LdEP2uNNwEiNdgbDuhv+4a+941mL5up/r1i2+/9J+LbU+N1GBs/dWvwdRlXN3W4KtI7EvNcFERkQUxOBNZmtEdEZEgVv2P/jCGZ92C2kp4JhPcZOEZACpzk5H9wwtIW3U7Sk7+AnVhBkrP/Y7ra6ch+8tlqMiMq+6qzs/F9dWoHd42wjNJE70YlPbrynioqx1mPHxWPZQIdka2G6LflWKhUKwGY9sJ/XXX2PeuwfR1O9Wvvy2GZyKyPB6qTdRkBBgeAidY5LDt2mZ6V8lu4GHbJvWDtnHYNiDdT5Mdts29GdPpH36t88ZWj4I2cth2DY0a5VdPIv3jByBT2ADqCkBTWbdJdZ+Gt6qqWyMgdkhu2zhsm6SJ3oZI+3Ul9j1Vt21LPGxb/7DnqnVDd9tl5JBpvUH622C9WZPYfrXiw7aJyOL4izNREzD662OdFw1eEQyH8Zdn3YIs8cuzKf0YzIElfnkm89yEvzwDANRqCBVKCJpKiT6N//IsWifAX55vEm39l2dt//rrruQ2V/+5ke9mo9sv/edi21MjNYgvCsMaTF3G1W0NvoqkvvCIyGIYnImaCMOz3rRaWHgWnbKg91yvH93WAnQXhdjOEndeGuVmDc8mBNr6wrOYVhueySw3Q3g2rEm8WP1BRoNrnScMz0RkDIMzkcUJkA69NQ9Eglj1P/rDGJ51C2qt5zyTNNElxfAs0afx8Nzmznkmo2q3OHWGtfHwzHOeIbJdM/55IiLLYHAmsjTtyUZSobfmgUgQq/5HfxjDs25BrS48MwdIksnkMAieNRieJfps4+FZJjc8b5d0yKp35QxDlPgHxfj3FPSGGQ+fVQ8lgp2R7Ybod6VYKBSrwdh2Qn/dldzm6j8XGUdbk9j2S/+52PbUSA3ii8KwBlOXcXVbw/e96l95zf3hichiGJyJLGzQ1BATQ2/NA5EgVv2Paf0Ies1MCL0Mz7VtRJKTfj9iOyu6fQvQXRSGO0vdxrvr90J1WHUYAEVAJwBGsirDs0SfbTg8R40F3ELFXyQAwB39HjQMhNUYno3XbzS41nnSmsPzqK6zDOoiosZhcCayMBsHK9g5WJkYemseiASx6n9M60fQa2a4B8zwrJ2w4RyIJCf9fsR2VnT7FqC7KGpfUVjLYOfIr9v6KNz8jAaAqoEMz8b7bKPh2TlAZCDV5eHsA7lMZvSzczOEZ14wTLdKZzsPKOTWBjURUeNwT47IwnzDHOEX4WRG6K15IBLEqv8xrR9Br5kJoZfhubaNSHLS70dsZ0W3bwG6i6Lq/y7eNvCNstdvTXpsY2+vemAkAFQNZHg23mfbC89C9GSRzqiugdFjoVBU313UyGenrYdnw+Ikgqvo9HU71a+/tYXnriED4GDjbFAPETUOgzNRE+gzMbDqgcmht+aBSBAzqx9Br5kJoZfhubaNSHLS70dsZ0W3bwG6i0JA9CgX/VYkwrr7OMgc3KqeGAkAVQMZno332XbCs+AbA1lgL5GOSN+43jOh/6ExWCXbeHjmYdvQbtcGd5pqUAcRNR6DM1ETCI12hb1z7S8ApoXemgciQcysfvR3nkwIvQzPtW1EkpN+P2I7K7p919avsJEjuKuDfgsSIbN1gHVU/9oBRgJA1UCGZ+N9to3wLAsfAljZipVLevpEjTQIn3X+0WJ4Nl6/0eBa50lrCM8+riHwcw8zqIGIGo/BmagJeIU4ovtIP5gfemseiAQxs/rR33ky3ANmeNZO2HAORJKTfj+Go4i8ZwIQ0ccJnqF2+mOTEfbjHtUdYCQAVA1keDbeZysPz3ZuQJ+54oWSge5ht6BrWD+D8FnnHy2GZ+P1Gw2udZ609PA8LHoaXOw9DaZPRI3H4EzURIbPioBXiCPMD701D0SCmFn96O88mRB6GZ5r24gkJ/1+DEfR7dvZ2xr9pnvpj0USFIHRsB2hF5iMBICqgQzPxvtsxeF56LOAW7B4kWTA2soGD4x4Cm4Ongbhs84/WgzPxus3GlzrPGmp4blDQCwGdeR1AYiaCoMzURNx8bbF/f/rXv3M3NBb88BgN8bMfvR3nkwIvQzPtW1EkpN+P4aj1PZ92+MBcA2w0R+DJMhkcjhNfg7WnYbovmAkAFQNZHg23mcrDM/dZkDW92Hx4sioLqF9sXDsqwAMw2edf7QYno3XbzS41nnS0sKzrZU9lo1dBSc7N4NpEpFlMDgTNSHPYEfc/lgnyBUymB96ax4Y7MaY2Y/+zpMJoZfhubaNSHLS70d/FLkcGDDLBz6RPES7QRTWcLj7Dci8wnSHMzyLTMRIna00PMsCe0I2+lXxoqheg7uMx4TYeyHTrmMMz4bbLvFiW3N4ViissWj0u7DnlbSJmhSDM1ETksmA/rcHY+LSjlDYyMHwLN6uNYTn+vqpeShXyNDvHm/0muwJmVwkfJBJrLxD4br0a8h9InRfYHgWmYiROs0Iz+LB6MaGZ1lIX2DGt4C9u8hIZAqFXIGlE17H+NhZAAzDZ51/tNp6eNb230bDs521AxaNfg9dQwcbTIOILIvBmegG6D85GBMWd4BHoAPMD701DxiemzM8m9KPk7c1+s/wRu8pPK/ZEhReIXBd8jWs2t+i+wLDs8hEjNRpYngWrRM3KDzL5ED0JMimbwEceFEjS1g0bjmm3jKf5zzrdNf2wnOQe3s8PPIN9AwfZtA3EVkegzPRDdL/9mDMfb8XOg/yAcOzeLvWEJ5FpywAYT2dcPtLIeg1maHZkuSeQXBd+hXsJz0DubN37QsMzyITMVKnGeFZTJOGZ88IyMa9Bfm0TwBHb4PxqGEUcgXmjnkBL921ETGhvNq2WJ/ah600PA/vPA3P3fEZekeMNOiTiJqGVXMXQHQzcfOxx8xXuyE9vgh/fJyAiwezoVYLEGRA7S571U6xTFb7XOdR9YsGrwgwsR8Bsurxq/6pfq7TVZ1hqNrYy2S6O78CBMhqJ2haP3rTFmsnyHTbiE1ff9r196O/POq0qF2wqAkxtaMIEGR6cyDItH3I5EBYdyf0meYN3/YOkCtATUFhDYcxS2A/ZDbK9m2Bcsc7EMpL6676emsMqj8MAvTeXt1RgDrvv5F2OiMbPKwzQFa9RolPC4De+ld3vDptjU3LoE9Z9edCfyJG6tQZXn0GrNgy0a9RO1wGmUxkT76eaRlt7+wP2dAnIes2FbBxNJwgWURMWF+8ed9XOJl0EFv+egcXU45XhTcjnx2x7/rabUud7YjIelI1TGybhTrrif73tOF6o7/d0K1VbHsnUYNeneLbIBhsB8Tq198G682axPZLrwbR7amRGvTayhVWuKX9eEzusxA+rrzqPNGNxuBMdIPJ5TIEtHfBva91R+rlQlw7W4DzB7KQk6o03NeWwWAjXOeFmkfQeSQzHCbT/V/1MJl+M53XDZ/BYE9Jvw+dYTq1NLZd1Y6E4Q69/jwYLivdYeJ96C0aw570lqmTlzWiBrjCJ8IO/h0dDKZJTUNm7wL7WxfCfthDKDvwOTS5KVCd3F77ukEDoOZ3GpnRkQw+Gjptja1yok/rTM8YsVCqt+pLDzf8C4F5fdYZIJOqVaxPwDA8S01LZFnJes6A4OQNea97jU+bLMraygax7YYitt1QHI3bg7ScJOw49gVKVcV632219L+PDR9Wf0OLfZ7q/YwZfr/qjyy+3avbt8GWT6+93jiiNYnMvF7/YnWKfRYNtnDGloHOAMO51F9ONcJ9u6BjQCy6hgyAr1uoYedEdEMwOBM1o8AoFwRGuaD/FP7lmMhk1jawG3o/AMBhygvNXAyZy0gmpxugd7uhQDtgYt/ZzV0KEVGrw3OciYiIiIiIiCQwOBMRERERERFJYHAmIiIiIiIiksDgTERERERERCSBwZmIiIhMtnvXTqxf9V5zl0F0Q5w7cwpPLl2AMqWyuUshombGq2oTtQKvvvAMCgsLtM9d3NwQEhqOTtFdENuvf4P6vJ6aAoWVFXx8/RpdnyAIOLBvL04cO4LM69dh7+CAgMAg9B8wCB2iOzfJNOnmcfjgfnz/9Rfa5wqFFQKCghAcEobBw0fAw8PT7D7LlEqkpaUgJCQMVtbWFq3P1tYOQaGhGDZ8JKI6dZZo2Tr9/usOnD1zCrMfnAdbO7vmLoeaSVZmBlYs/4/2uUwmg5ePL0JCw9C7bz9EtotqUL8J8Vfg7eMLZ2cXi9Q3Z/4idOgY3eB+CgsKcfrkCWg06kbVQ0StH39xJmoFzp89A7VGg649eqFr955wcnLG8aP/4oWnHsVzjy9FZka62X2+//ab2LxhfaNrq1Cp8NSyRXjn9eUoLy1FZLv2cHZ1xfmzp/HBuyuaZJp0c8nJzsbpkyfQuWt3dO3RC+2iOiA3JxtfffYJHpx5F7b/9KPZfcbHXcaCB+5FVmaGxesLDA7GiSNHsHT+Q/jq808b3X9L88Ly1/HR598wNN/kysvLcPrkCXh7+6Jrj16IjukGjVqN33Zux+KH7sfa99+BSqUyu9/FD92PA3/vtVh9xYVFje6LiAjgL85ErUaXmG6YOXuOzrBjR/7F26/9F6//9yW8vWodZLIbf4fUH7/7GlcuX8C6j7+Ar5/uL8mCINzweqjtumfWbFjbDIUxyAAAIABJREFU2Gifl5SWYN3Kd/HBO2/Czz8Avfr0bcbqdOvTaDR4+/VX8enG9ejXfwDCIiKbtTZLcnRwhKODY3OXQS3E8FvH6Hz2NBoNfv7hO3y4eiXs7Oxx/8Pzm7E6IiLLYXAmasV6xfbBgqWP4dWXnsXuXTsxcsxYqNVqHDq4H8ePHEZmRjpcXN3Qf8BgDBwyVNvuzVdexoljRwAAWVkZsHdwwH/+95ZJbfVdvnAevn4BBqEZgE6QNzbNMqUSLz79GJ5+6RUcPXwIx/49BD//AJ2drbOnTuLvPbuRmZGOdlEdMWX63XCwdwAAk2ouUyrx0rNP4KnnXsbeP//AhfNnYaWwwrBRoxHbrz/iLl/Cvj1/IikxHgFBwZh61wx4eHo15C2hG8jRwRGPPPUs4q5cwgfvvImPv/wOMpkMGenXsXvXTlxNSkRZmRKhYRGYPO0uuLt7AABOHDuC5594BADwxNKFCAgMxMQp0zBwyNB625pKLpfjofmLsXvXTpw8fgxhEZH45cfvUVamRP+Bg/D7zh24mpSAmbMfRLuoDgCAyooKbP95Ky6ePwuNoEHnLt0wbuLtUFjpbqrVajV+3fYzzp85jZLSYkS0i8Jt4yfC28cXAFBeVoZftn6Pi+fOwsnZGUNGjEKPXrHa9hqNBvv++hP/Hj6IwoJ8BIWEIjo6BoOGDTfp9V9+/B7xcZex7IlntM/lMhnCIiJxcP/fSEm+iuCQMNx51wy4ubvr1F6qLMXPP3yHuIsX4OXjg34DBuHs6VMIC4+U/J6h1kMul+P2O6chNeUavvvqc4weOwEBQUEoLSnGX7//hosXziM/Lxfevr4YN2my9pDuwoJ8vPris1Cr1Xjvzdfw52870blrd9w35+F62zZUQ/vdtvV7HDqwH48+/ZzOtmL377/i+JF/UaFSoUfvWIwZN7FZ/qBNRE2Dh2oTtXIDhw6Dn38ATp88DgD4Z/8+rH5nBcrLyxEWHon83By8+uIz+OHrL7VtevXrp308aOgI9BswyOS2+gKDQ3A1MQEH9kkfWmdsmhqNGqdPnsBzjy/DxrWrABng6OSkHXf7Tz/i2SeWobKyEhHtovDn779i0YOzUV5WZnLNGo0ap44fwz13TMCpk8cQEBSMnJwsvPDUo3hs8Tz89/mnUVhQgOCQMOzd/QcWPXw/SkpL6l321PzkcjnunH4P0q+naQ+7fvnZJ3HqxDF4eHnB28cPu3Zsw6IHZ6NUWQoA8PHxxcChwwAAg4YOw6ChIxAQFGhSW3O4ubvD3sEeJSXFAIC01GT8+N3XeGzRfJw6eRx29vZwcXUFULUDv3Teg9j63dfw9PSCtbUNNqz9AI8unofKigptn+VlZXh88Xx89dlmOLu6wNPbBwf/3ov062kAgKKiQiyd9yD27P4dYZHtUFlRgeceX4ad237S9rHqnTfx/jtvQiaToWN0F+RmZ+PsmZMmv56WmowrFy/qPP/g3RV463+voKy8DEHBofj91x1YOm+O9nMKAPl5eVj04Gzs/HkrfP0DUFRQiOUvPofPPt6I7KxMs5cvtWxT754JtVqNC+fOAAA+2bgev2z9ATZ2tggJC8f5M2ew+KH7cenieQCAjY0tBg0dAQCIbBeFQUNHILpzjEltG6oh/e798w+sff9d3Dbxdp3Q/MYrL2HT2tXw9PSCl48PNqx6Hyte/Y/Rfoio9eEvzkRtQHBoKK5eTQIA9B8wELcMGgy5vPbvYu+t+B++/+ZLTJl+NwBgxKgx+GPnDnh4eGLC5Du045nSVt/0GbNw5tRJvPL80wgLj8SgYcMxfNRo+AcE6oxnbJo1EuPjsOOvAzrTzs3NwYa1H+CRJ5/FsJG3AgCmTL0Ls+++A7/89APunH6PWTXffuc0zFv8iPb5k0sX4PTJE/h22y7thWjGTpiEB2fdhX1/7saY8RNF55lalqDQUADAtatJ8PH1w8q1G2Fja6t9/c677sGcmdPx9+4/MGb8RAQGh2Di5Duxd/cfmDj5TvgHBmnHra+tOa6npUJZqkS79rW/XuVmZ+PNlWvQtXsPnXE/2/wRSktLsHrjJ3BwrPrD0eix4/Hk0oX46Ydvccf0ewAA3375GbKzMrH2oy1wcnY2mOZXWzYDAN5d/aH2sHG/gEBsWrcat44ZB41Gg107t2Pxo09izLgJBu0rVCrJ16Ws+/gz7XnPt44dh7n3zcCB/XsxfORoAMCWjzdAo1ZjzabNcHSqqj0pMR7zZs80azrUOvj4+sHO3h5XkxIBAA/OW6Tz2Xrg4fmY/8As/PTtN3jyhZdhZ2+PCZPvwLoP3sWEKXfqrH/1tW0oc/s9ffIE3vrfK5i/5BEMGDREO/zwwQPYt/cvbNzyFfz8AwAA/W4ZhCeXLsDt06YjqkOnBtdIRC0Hf3EmagNcnF0hqDUAAIWVlU6IBIAePWORk50FVXm5ZD8Naevg6IR3Vq/H26vWITQ8HF9/thlzZkzDS888YdavAY8987zBtA8d2A85ZBgyfKR2mJOzM3rF9sXlC+fNrrlbj946z7v37A1nZxedq7cGBAXDy9sHaakpJtdOzcul+v3TVH8G6u4IA4CffwD8/QNNek8b07aGurIScZcv4fVXXkJ0l66I7XeL9jVfPz+D0AwAe/74HeMmTdaGZgCI6dYDvfv2w7+HDmqH/bZzO8ZOmCQamgHgrz9+w8jbxuqcCz5kxEgUFxUhtfqq9ra2dvjzt19xNSnBoH19rxsT2S5K52JhoWER8PD0QlpK7XI78PcejJs0WRuaASAsPBL2DvYmT4daFycnZ2jUVVej1v9sKays0KVbd6Smmf+5NKetpfpNiIvDf555AndMuxvjb9f94+9fu3ehZ+9YbWgGgK7de8Dd3QNXLlxoVI1E1HLwF2eiNiAtLRVhERHa54WFBThy+B+cP3MaRYWF2h3vysoKgx0FfQ1t2zmmGzrHdEOpshT//L0Xn2xcj2eWLcbaTz4XPf9Zn5OT4a1HUpOvoVRZikcXzdUZnpGWhoj27Rtds62dHTQiFzCztbXT7uxRy5eWVnWYct3PwIVzZ3D86BGkpaagpLgIKclXUVFh2hV+G9p2wqghUCgU0Gg0kMlkGHHrbZgzb6HOH3bE1vNSZSlyc7J1fvmuEdkuCn/+vgsAoCovR1ZmBvwDDMcDAGWpErk52di45gPs3/uXdri6srJqOsXFkMvleObF/+LD1e9j7n0z4B8YhLETJuG28VVhvL7XzWFnbwd19eeopLQE+Xl5CAgKNqsPar1UKhVysrMQHtlOOywtJQVHDv+D+CuXUFpSgv1/7zH5POXGtLVEv6tXvo2S0hLccdc9Bq+lJifjyqWLWLbgIZ3hJaUlKK4+VYOIWj8GZ6JWrrAgH4kJcRg+qupwyPi4y3ju8WWI7hKD2H63wMfHDwEBgSbdFqcxbWs42DtgxOjbEBYZiYVz7sPxo4dx2/hJDZq3mtD7wMMLAOgGXFc3N4vVTK3byWNH4Ormrr041soVr+PQgX0YN2kybhk0BE6OTrh03rSjHxrTdvmK92BtYw0nZ2cEBYXU+0eqGjZW1pDL5SgsyDd4rby8DG7V96nWaDQQBEF7zrQ+KysF5HI5BgwZigm3G54OUXNl79h+/RHbrz/OnDqBg/v24pvPt2DHz1u1h1rX93pD2FrbQC6Xo6igoP6RqU04deIYBEFAZFRVCP3j1x1YvfItjBw9Fj1694GrmzvKy8uRnZ1Vb1+NaWupfhc/+gSef/wR/O/l5/Hqivd0/iBmY2uLgKBgPCByBfFA/rGIqM1gcCZq5TauXQUvLx/t+WA7ft4Kv4BAvPjqG9pxlEqlaFtVpe6vaOa0rY+LS9VFj5wcdX+l0p+mlIiIml8qBHTt3lN0HEvWTK1PSvJV/PT9N1j82JOQyWTIy8vFzm0/YfmK93RukZOXl4tzp08btFdVVuiMY05bfV2799A5RNpUVtbWCAwKwcF9e3X+yCQIAk4cPYou3boDAOzs7eHp5Y0Tx49g3KTJBv1Y29ggODgUBXl5Rj8vdcV064GYbj1wy6AheGLJAsRdvoTOXbuZ/HqD5nH/XoNzxZWl/Ly2NeVlZdi4ZhVGjhmLsPCqP9h8/fkWTJw8VeeOCb/8+C0S4+MM2lfqHeFhTltzmNNvWHgEnnrxv/jPc09iw5r3MXfRMu1r4RHtcDXxN0REtjf7yAwiaj14jjNRK1RYWIDTJ0/gmUeX4OD+v/Ho089qd9jt7OyRcu0qTp04DnVlJdKvp+G1l58z6MPXzw8njx5FVmYGNBqNWW3r+vbLz/DVlk9w4dwZ5OZko6ioEKdPHsfyl5+Hr58/esbW3gZHbJpSbhk8BBGR7fHO68tx7swpCIKACpUK58+eRklxUYNrptZNrVYj+VoStn73DZY89AD6DxyMUWPGAQBsbap+2dy/9y/kZmejQqXC33/tBgB0iI7W9uHr5w8A2P3rTmg0Gmg0GpPbNoW7Zt6LI4f+wZaPNqCkuAjFRUVYv+o9pKen4a6Z92rHmzjlThzYuwfbtn6vPQQ7/solFOTnAQBmPfAQTp88gfWrV2qvBJ6VmaFzvYGff/gOaSkp0Gg0KFMqcfTwIcjlcvhUn1JR3+sNNfWemfj3n4P49KMNKC4qQn5eHj7+cG2j+qSWJSszA/v37sG8B2ZBEDR4eOES7Wt29nY4eeIYriYlQKPR4OK5s/hn/z7Y6P2xycfPH/v2/AllqbJ222RiWzGVlRWoUKl0/qv57Jjbb99bBmD2Q/Pw47df47ed27XDp949E5WVlVj+0nPISE8HAJQUF+HU8WPmLUAiatH4izNRK/HNF1vw3VefQxAEaDQa2DvYo0//Adiw5Sude8xOvXsmTh47iqeWVZ1baWtni0HDhmPv7j90+pt690wc/fcw7ps+BTa2tnhn9XqT29ZlY2OLXb//hk82rtcZ3veWgXjy2Rd1LgQkNk2/6gAjRqFQ4L9vvIUP3lmBxxbNg4O9A1SVFbCxscXLr72Jrt17NKhmap0mjR4GmUym3Zn2DwzC0ieewZARtRePc3B0wtxFy7Bx3Srs3PYT5HI5OnWOQXBIGKzq3A/Zy9sHU++eiW++2IJtP36PHr1j8cKrr5vUtikMv3UM8vLzsHnjenzx6ccAgMCgELz57gfw8vbRjnfHtLuRn5eLNSvfwfrV78PKSgGFwgovvPI6uvVwx8Chw/Do089j45oPsPXbr+Hk5IyiokL0HzgILy1/E4WFBdi1YxvWrHy76v7QggA7WzssevRJePv41vt6Y4waMxY5WZn47JNN+PLTj2FlbY2Bg4fCytq6Uf1S83rhqUchk8m02yY3d3eMmzgZd8+arfPezl24FK++9Czm3jcDcrkc3j4+6NErFoV6h+/PmbsQK177D6bffhucHJ3w2fc/m9xWzEvPPGEwbODQYXj+P681qN9p98xCYnwc3n/7DQSHhKBT5xj4+vnhtbfew8oVb+C+6ZPh7OyC4uIi+Pj6Ys2mT3W2g0TUeskEQeTKOESk4+ddexEaFQVv38btODbUhXNnUFF9L1eZTAYfX3/4+PpCJpOJjq/RaJCacg0qlQrBwaGwsbXF2VMnER3TVee8LJVKhWtJiXB1c9PuFJvaVl9JcREyMtIhCAL8AgLh6OAoOp7+NDUaDc6ePomwiEjt4d2i/ZeWIDX5Guzs7BEQEKizQ1ZfzcamkZ2ViYz06+gco3v46aWL5+Hi4mpwS60bIS8nB5fPnsXE0UOgkFjercHp81eQmV+M6O4NO7y3Rm5ONlKSr2mf29nbIyQkDHb2xq/GXHUV6eSqe6p6+yArMwOVFRUGF+DKysxAQX4+QsLCtb8ymdpWv76Ybj2MfiYB4HpqCoqLi9G+Q0ej41RWVODatSQ4O7tIBtUypRLJ167C1s7O4PMAVH0mMq6noaiwAF6+fvCoPk+6RkF+HjIzMmBlZYWAwCCDc5elXtefD2PzdfnCObi6e2h/3a+hKi9H8rUkBAaFwNrGBhNGDsazL72qvbd2Q5345x90jAxFZJj4+9RaFBaVYPf+f9E1Nhb2Dg7NXY5RqvJyXLxwTvvcysoKQcEhcHF1M95GpULy1UTY2dnDPzAIZeVlSL12zWDdKS4qQlpaCgICgrSHPpva1lh9dbm6uyM0NNykfgsLC5CUEI8uXbtrt4EqlQoXz5+Fi4ur9toBNXJzc5CVng4XNzf4+QdIfie0BClJSSjMycbIQX2auxSili6BwZnIBDv+PAi/oCD4BbXuHTJq+bLS03E1Lg4Tbx3c3KU02sW4JFxNzUBMncP1ieq6cukiFj98PzZs+RLBIWEN7kcQBBzdvx89YzoiOKB5/sBpKWXlKuz88wCiu3eDs0QIJbKEpLgrqCwtxeB+hrfJIyIdCa375wyiG8TZyQGlJSXNXQbdBEpLS+Dk1HJ/ZTKHs6MDlEqlSeez083h7792o7Cw6jDY62mpWL3ybQwcOqxRoRkAyqvXMyfH1v/ZsbO1gbW1FUpLSpu7FLoJKEtK4dxGtjlETY3BmcgEnm6uKMw3vFUMkaUV5+XD083wXr+tkbubCwRB4C2ICABQWlKMTzdtwLQJYzBh1BDcf/ed8PX1wyNPPNPovgvz82GlUMDVWfwUkdbGw80FRdUXfCNqKhq1GsWFhfBoI9scoqbGi4MRmcDfxxOX4pNQXFTEW01QkylXKlFcXIyunSLrH7kVcLC3g4uzE3KzsuDq7t7c5VAzc3B0wsbPvkL69TQUFOQjODgEDo5OFuk7NzsLPl4ektdhaE38vL1w9nI81Go1FApFc5dDbVR+Tm7VdUm8PesfmYj4izORKdzdXODs5IiM1NTmLoXasPS0NNjb28HHs+2EzLAgf+RkZqKyzv2S6ebm5x+ADh2jLRaalaWlKMjLR2iQ8Sv0tzZBAT6AICA7PaO5S6E2LON6Gny9PWFra/7954luRgzORCbqEBmKnMxMlBYXN3cp1AaVK5XITEtD+/DgFn8VVnOEBvnBykqBlKSrzV0KtVHJ8fFwcXaCr7dH/SO3EjbW1ggLDkDq1atQqyubuxxqg/Kyc1CYn4+oiJDmLoWo1WBwJjJRcIAvPNxckRQX19ylUBuUFB8PRwd7hIfc+FtgNSUrKyt0jopAZloaSkv4RyeyrPzcXOTl5qJbdPs29QcnAIhuHw6FHPyjE1mcoNEgOTEewQG+8HQ3fhtIItLF4Exkhq6d2qG4sBDpPGSbLCgrIwP5OTnoFt0e8ja28w8AIYF+cHNxRuKlK9CoeYVtsoyKChWSrlxBoL8PvDza3m2brKys0Kl9ODJTU3lxSrKo5MREVJSr0LlD27ieBtGNwuBMZAY3V2dEtw/Htfh45OfkNnc51AYUFRQg6fJlREWEwLsNndtcl0wmQ2z3aFSUKxF/6QIEQWjukqiV02g0uHLuPOQyoFt0VHOX02TCggMQ4OeDuHPnUVaqbO5yqA3ISk/H9ZQUdO/SAfZ2ts1dDlGrwuBMZKaoyFAEB/gi7uIFlBQVNnc51IqVlpbgyrlz8PX2QHRURHOX06QcHezRp0cX5OfkIjkhobnLoVZM0GiQcOkiykpLMCC2G2xtrJu7pCbVM6YjnBztcfncWVSoypu7HGrF8nJykHT5Mjq1D0dwgG9zl0PU6jA4EzVAjy4d4O3uivOnTiM3K7u5y6FWKD8vD+dPnISrsyNiu0W3ufMzxXh5uKFnTEdkpKYi7sJ5aDQ8bJvMU1lZgYtnTqMgNxd9e3SBs6NDc5fU5BQKOfr1ioGVHDh3/ARKeIFKaoD0lFRcOXcOIUH+6NgurLnLIWqVZAKPmSNqEEEQcOZCHOKvpiAwNBQBISFt5h6i1HQEQcD1lBSkJCYiOMAXPbp0uOnWm6ycPBw+cRa29g6I7NgBdvZtP/xQ45UUFiL+0kXIBAH9e3WFi7Njc5d0Q1VUVOLfk+eQnVeA8Pbt4eXLXwypfurKSlxLiEdWegY6R0WgPa+iTdRQCQzORI2UeC0VZy/Gw8rGBsEREfDw8mrukqiFKsjLw9W4OKjKy9CpfTjah9+8OzDFJaU4fPIciotK4BsYiMCwUCgUVs1dFrVAKpUKKQkJyMrIgJenO/p0i75p7zsrCALOXoxH/NUUODm7IKRdJJycnZu7LGqBBEFAVnoGUhITIZcJ6NGlI/x9uX9C1AgMzkSWUFZejrMX45GclgEnJyd4+fvD3dMTNra88MbNTqVSIT8nF9np11FUWIgAX2/EdGoHB3u75i6t2QmCgKTkNJy/kgiNIMDb1w8eXl5wdHG5KQ5dJ+MEjQaFhYXIychATlYW7Gys0aVjOwT6eTd3aS1CQVExTp+/gpy8Ari4u8Hb1w9uHh5QWPGPTze7slIl8nKykZV+HeXKMkSEBqFjuzBYW3PdIGokBmciS8orKELC1RSkpmdBrVbD1tYWdg721TszDAI3DwHqykqUKctQXlYGhUIOfx8vRIQG8Z6ZIioqKpGYnIrE5OsoLVVCoVDA3tER1tZWkMkVzV0e3UAatRoVqgooS0ug0Wjg4uKE8OAAhAb6Q6G4uU5pMEV6ZjYSrqUhM7vqLg929nawtbODnEdv3FQEQQN1pRrKkhJUVFTAxtoaQQG+iAwNhNNNcB0AohuEwZmoKag1GuTkFaCgoAglyjJUVFSAn7SbiAywtrKCo70dXF2c4eXhCoWCAdAURcWlyMkrQFFxCVQVFVDzvs83FYVCDlsbG7g4O8LLw41HZpiooqIS2bn5KCgqhrKsHBUVlc1dEt1AMpkMNtZWcHS0h7urCzzceNQOURNgcCYiIiIiIiKSkMDjnoiIiIiIiIgkMDgTERERERERSWBwJiIiIiIiIpLA4ExEREREREQkgcGZiIiIiIiISAKDMxEREREREZEEBmciIiIiIiIiCQzORERERERERBIYnImIiIiIiIgkMDgTERERERERSWBwJiIiIiIiIpLA4ExEREREREQkgcGZiIiIiIiISAKDMxEREREREZEEBmciIiIiIiIiCQzORERERERERBIYnImIiIiIiIgkMDgTERERERERSWBwJiKysMysLOTk5jZ3GVotrR66sW7G93/S1OmYM2++SePejMuHiIjMZ9XcBRARtXSPPf0Mft/9J04fOWzw2pFjx7FgyVJ06tgR61e9D7VajbG3T4GNjQ327NoJGxubZqi4VnFxscXqqVkOdXl7eyEiLBxR7dvhvpkz4OPt3diSLe7gocP48ptvkJCYhMzMTLi6uiIwMABDBw3C5IkT4Obm1twlNhlLvv+NtW3nTjz74ssAgB+++gLtIiObrZYaLWn5EBFRy8ZfnImIGujsuXNY8uhjiIyMwJqV78Le3h52dnYIDw1Fu4gIWFtbN3eJTVLPY0uX4LGlS/DI4kUYNngwKior8PlXX2PSndPw1bffNbjfrb9sw7QZs5CekWGROgHg9bfexrzFS5CTk4sRQ4dg7oNzMHrUSDg5OuLDTR+hoqKySaff3FrS+vjzth1wd3cHAOzY9Vuz1lLD2PK5ketCW1zviIjaIv7iTETUAPEJCZi/ZBn8/f2x7oP34eTkBACwsrLCt1981szV1WqKeu6bOcNg2Jmz5/Dif1/Ba2+uQIC/PwYPHGB2v7m5ubh4+TIqKiosUSYOHzmCL77+BnNm34elCxcYvK5Wq6FQKJps+i1BS1kfMzIz8e/Ro3hs6RL8sPUn/Prb71iywLRDqZuSseVzI9eFtrjeERG1RfzFmYjITMkpKXh44WK4ublhw5pVcHN1be6Sml1Ml85Y8/57sLW1xWtvvomysrLmLgn/Hj0GAJg4bqzo63VDMzWtX3bsBACMGTUKt44aiZTUVJw5e66ZqyIiIjIdf3EmIjJDZlYWHlqwCDY2Nti4djU8PTwMxpk0dTq8PD2wad1anWETx42Fu5sbdv3xB85duAAXZxcMGzIYC+fOhYODvU4fcfHxWLVuPc6eO4+KykrEdI7GkgULENW+nc5419PTsemTzTj077/IyMiEvYMD2kVEYNmihega08VoPaa0M5e/nx9m3X0XNn6yGSdOnUb/vn1QVlaGHbt+w85dvyHp6lXkFxQgKCAAt44aiftnzYSdnR0A4L6HHsaJk6cAAOMm3wEA6BrTBZ99tMnkPvTZ21ct01NnziI8LEyydqnp1yzDEUOHYMAt/bH5s89x7MRJ9I3tjXfeeF3bhynvmTnzMmnqdEwYNxauLi747Y/dOH/xItxcXTF65AjMfXAOMrOysH7TRzh1+gxy8/IQ3bEjHlm8CNGdOurMmyXWx/jERKxasw5nzp1DqVKJrjFdcP+smZi3eCk+Wr8WPbp1k1y+v2zfgdheveDt7YVbR47A2g83YMeuXYjp0tlgXFOWdU5uLj5YsxYnT59Gatp1+Pn6YuAt/fH4sqU6fxDZtnMntu38FWfPnTM6f/rLp751wdT32pRaH5g3X3JaXWP7YtodU/D800/p9Pny8tfww9afdK67YKl1lIiIxDE4ExGZKD8/Hw8vXITKykps3vghfH18TG4rCAJWrl6DwIAADB44AP379cOx4yew5YsvkZKaipVvrdCOe/CfQ1j6+BPo0rkz7p1xDyoqKvDLjh2469778PnHH6FTxw5V9RQU4P6H50KlqsDwoUMQGRGB1LQ0xMXHGwQfnfloYDtT9OzRHfhkMxISE9G/bx/kFxRg5eo16NcnFt27dYUMwMnTZ7D2ww24di0Z/3vlPwCABQ8/hLffex8XL1/G4vnzEBwcpP0l39Q+9A0bMhgfbvoIr/zvdVxPT8e4MWMQEhwkOq7U9Gts/WUbvvjmG/Tu2RPjbxujc3Erc94zU+dFEAS8v3oNgoOCMHjgAAzo3w8HDx3Gxk8246dt21FWXo6+vXvj9gnjUVBQgO9+3Ir7587Dj19/iQB/f8n3yZz18d8jR7HwkUfh6eGBCePGwtrKCv8c/hcPLVgkOY0aZ86eQ2JSEu6/dxYAIDJ+HioTAAAP+UlEQVQ8HJEREdj1+x944pFlkMsND36TWtZX4uLx4IKFsLaywm2jb4WPtzdSUlORkJioDc0ajQZHjh1HckoqBg8aiH59+hidP331rQumvtem1GrKemcOS6yjRERkhEBERJIefeppIaZ3H+Ge2fcLMb37COcvXJQcf+Kd04QH5s4zGBbTu4+gVCp1hj/70stCTO8+wrXkZEEQBKGsvFwYM/F2YcHSZYJGo9GOp1QqhTETbxcenL9QO2z7zl+FmN59hMP/HjGrHlPb6atZDlKuJScLMb37CK/873XtsLrzUePZF18SYnr3EfILCrTDNn2yWWdZ1GVqH/qOHDsmzHrgQSGmdx8hpncfYdrMWcJX334rlJaWGowrNf2a92//wYMGr5nznpkzLzXTLCsr0xl33uKlQkzvPsLf+w8YzGtM7z7Cux+sMqi9oetjZWWlMPHOacKkqdOEoqIinXGH3jpGiOndRzh+8qTB/NT1yutvCL1uGajTfu2GjUbXQallLQiCcN9DDwtjb58iFBQUGp1mTR/6NevPX824+svH2Lpg7nttSq1S653+Z6nGS68uN/gsWnIdJSIiA/E8x5mIyETT7pgCAFi9fj3UarXZ7WN79TQ4rHjY4MEAgITEJADAmbNnkZqWhqlTpkAmk2nHs7Ozw9DBg3Du/HntMBvbqlvn/Pr77ygtVZpcR0PbmaPu4bJ156NGn9jeAIBr15JN6q+hffTu2ROfbtqALz/9BJMnTkBySiqWv7ECI8aOx+r1H5o07RoB/v4Y0L+/wXBz3jNz5yW2V0/Y2trqDBsyaCAAGPwy2btnTzg6OCAxKcmk+TFlfTx7/jwSk5IwZ/Zs7QXwajz+yNJ6p6FSqfDrb79h8MABOu1vHTECALDjN/Graxtb1pevxOH4iZO4b+YMuLg4S047tldPg5r1589c5rzX5tRqKZZaR4mIyBAP1SYiMtGk8eORnp6B1es/xH+Wv4b/vvhCo/t0dq7asa+5om5CQiIAYMljj4uOX/eWOUMGDsTI4cPw3Y9b8dO27ejdswduGz0at906yiBs1dXQdqa4llwV/PzrHCpcUlqK7Tt24sChQ0hITEJRcRFyc/MAAJXqStF+9DW2j86dOuE/LzyP5556En8fOIB3Vn6A9Rs3wdXFBTPvvsukGgIDxA9/Nuc9s8S81KwzYuM6OTlBpWr41Zn118fEpKsAgA7t2zeovz1/70NhYRHy8vLx+VdfG7z+w9af8NyTTxgsI6PLOrFqWbdv17B7QOvPn7nMea8bW2tDWGodJSIiQwzORERmmPvgHKRnZOL7rVvh7e2NxfPnWbR/B0cHAMDDcx7A8CFDDF6XK2oPFLK2tsY7b7yOa8nJ2PrLNuz5ex9e/O8rePu9lXh3xRvo3bOn6DQa2s4UJ06dBgD06xMLAMjLy8Oc+QuRn5+PGXdNx4zp0+Hh4Y49+/bj/dVrTOrTEn3UsLGxwchhw9AlOhqjJ0zCn3v2mhycjTHnPbPkvNwINQFTVaFqUPuft28HABw7cQLHTpwQHefAP4cwdPAgk/rLy88HAAgaoUH1NJZZ73Uz11qXOXUTEZE4BmciIjO98MxTyMrOwoaPPoa3lxfumnqnxfquufqzUqk0uDqyMSHBwViyYD6WLJiP8xcu4sH5C/DBmnXYvFH6UOSGtjMmKysbW774EreOHIGOUVEAgD/+2oO4+Hh8/+UXOr+8XbpypeqBCZnCEn3o8/P1hZubGyorTfvFW4o571lTzEtTCgsNBQCcPnMWXaKjzWqbk5uLA/8cwpRJE/Hy888ZvJ6YlIRJU6djx65dJgfn4KBAAMCV+LiqC9HdYOa815ao1draGkXFxQ1qW1dDvleIiEgX/8RIRGQmuVyOFa8tR+dOnfD6W2/jjz//sljfnTp0QMcOHfDNd9/XhikjBMEwZUV36oiwsDCUlpZavJ2UK3HxWLjsESgUCjz12KPa4Xl51Ycg6wXU7Tt3VT2oc7qvg0PVr2Jx8Qk645rTR11p168jMytL9LWdu35DXl6e9txiqenXx5z3rKHz0ly6dukMH29vbNq82WBZbvniS8m223f+CrVajbFjxoi+Hh4WhvbtIrHn731QKk07175LdDQcHRyw+bMvUFxSYtpMNICxdcGc99rUWqXWu7DQEBw9dlxn+Wg0Gvyw9SeT58XcuomISBx/cSYiagB7e3usfu9dzHxgDp5+4UWsd38fvXr0aHS/crkcLz77NB5euBgzZz+AaXfegehOHaFSVeDEyZPo1bMHJo0fD6Dq3rgbP9mMAf37ISiw6tetI8eO4ey5c3h06RKj02houxo156oKgoDr6emIT0jAkWPHERkRgY/WrYG3l5d23MEDB2Dtho2Yv3QpRg0fgeCgQBw7cQL7Dx406De2V08oFAq8vfJ9ZGRmQi6TYdqdd5jVR13vrVqNXb//gY4dohDVrj18fX2gUqlw/sIF/Hv0GLp07oyHHri/3unXx5z3rKHz0lxsbW3x5KOP4MnnnsfUGbMwcdxYeLi749iJEzh/4aJk25+3b4e3txd69zT+uRg9ciRWrVuPPX/vw22jb623Hjc3NyxeMB+vv/U2ps+8F1OnTIaPtzeupaTg3PkL+OCdt8yeRzHG1gVz3mtTa5Va72befTdeeuVVzLh/DiaMvQ2lSiUOHPzH7Pkxp24iIhLH4ExE1EAeHu5Y98FKzHzgQSx57Als3rBe576pDdUlOho/ffM1Vq1bh4OHDuOb776Hm5sbOnXsgAD/AO14UVHt0Tc2FocO/4uMrCwIGg2Cg4PxwjNPY+qUyUb7b2i7Gm+8/Q6Aqp3x0JAQtG8XiceXLcW0O6boXE0bADp26ID3VryBNR9uwE/btsHD3R39+sTii80fY+b9c3TGjYyIwJvLX8Wa9R/i3Q9WITI8HCOGDzOrj7peePop9O/bF3/u2YOTp08jPSMDLs7OCAoKxAvPPI3bJ4zXuSiSsel7enjUu0xMfc8aOi/N6daRI+Dp6YF1Gzbhx59/hkJhhYH9++GJR5ZhxbvvwUphuCtx8fJlXL4Sh/tmzhC9T3PdvletW48du34zKTgDwD3TpyEoMBAff7oFmz7ZDLVGg6CAAIwaMRwajUZyeqaSWhdMfa9NrVVqWpMnToCg0WDLF19i/aZNaBcZicGDBuKeu6bh2RdfNmuezKmbiIgMyQSxY/aIiIiIJHz25Vd485138deunSb9cYGIiKgVS+A5zkRERGS2hMREODk6MjQTEdFNgcGZiIiIjBIEARqNRmdYRmYmduzahTtNOLSfiIioLeA5zkRERGTUhYuXsPTxJzBy+DCEhoQgKzsbP/70M7w8vfDg7NnNXR4REdENwXOciYiIyKjr6en4aPMW/HP4EDIysxAUGIi+sb2xeMF8OFbfSomIiKiNS2BwJiIiIiIiIjKOFwcjIiIiIiIiksLgTERERERERCSBwZmIiIiIiIhIAoMzERERERERkQQGZyIiIiIiIiIJDM5EREREREREEhiciYiIiIiIiCQwOBMRERERERFJYHAmIiIiIiIiksDgTERERERERCSBwZmIiIiIiIhIAoMzERERERERkQQGZyIiIiIiIiIJDM5EREREREREEhiciYiIiIiIiCQwOBMRERERERFJYHAmIiIiIiIiksDgTERERERERCSBwZmIiIiIiIhIAoMzERERERERkQQGZyIiIiIiIiIJDM5EREREREREEhiciYiIiIiIiCQwOBMRERERERFJYHAmIiIiIiIiksDgTERERERERCSBwZmIiIiIiIhIAoMzERERERERkQQGZyIiIiIiIiIJDM5EREREREREEhiciYiIiIiIiCQwOBMRERERERFJYHAmIiIiIiIiksDgTERERERERCSBwZmIiIiIiIhIAoMzERERERERkQQGZyIiIiIiIiIJDM5EREREREREEhiciYiIiIiIiCQwOBMRERERERFJYHAmIiIiIiIiksDgTERERERERCSBwZmIiIiIiIhIAoMzERERERERkQQGZyIiIiIiIiIJDM5EREREREREEhiciYiIiIiIiCQwOBMRERERERFJYHAmIiIiIiIiksDgTERERERERCSBwZmIiIiIiIhIAoMzERERERERkQQGZyIiIiIiIiIJDM5EREREREREEhiciYiIiIiIiCQwOBMRERERERFJYHAmIiIiIiIiksDgTERERERERCSBwZmIiIiIiIhIAoMzERERERERkQQGZyIiIiIiIiIJDM5EREREREREEhiciYiIiIiIiCQwOBMRERERERFJYHAmIiIiIiIiksDgTERERERERCSBwZmIiIiIiIhIAoMzERERERERkQQGZyIiIiIiIiIJDM5EREREREREEhiciYiIiIiIiCQwOBMRERERERFJYHAmIiIiIiIiksDgTERERERERCSBwZmIiIiIiIhIAoMzERERERERkQQGZyIiIiIiIiIJDM5EREREREREEhiciYiIiIiIiCQwOBMRERERERFJYHAmIiIiIiIiksDgTERERERERCSBwZmIiIiIiIhIAoMzERERERERkQQGZyIiIiIiIiIJDM5EREREREREEhiciYiIiIiIiCQwOBMRERERERFJYHAmIiIiIiKi/7dfBwIAAAAAgvytN5igLGKIMwAAAAxxBgAAgCHOAAAAMMQZAAAAhjgDAADAEGcAAAAY4gwAAABDnAEAAGCIMwAAAAxxBgAAgCHOAAAAMMQZAAAAhjgDAADAEGcAAAAY4gwAAABDnAEAAGCIMwAAAAxxBgAAgCHOAAAAMMQZAAAAhjgDAADAEGcAAAAY4gwAAABDnAEAAGCIMwAAAAxxBgAAgCHOAAAAMMQZAAAAhjgDAADAEGcAAAAY4gwAAABDnAEAAGCIMwAAAAxxBgAAgCHOAAAAMMQZAAAAhjgDAADAEGcAAAAY4gwAAABDnAEAAGCIMwAAAAxxBgAAgCHOAAAAMMQZAAAAhjgDAADAEGcAAAAY4gwAAABDnAEAAGCIMwAAAAxxBgAAgCHOAAAAMMQZAAAAhjgDAADAEGcAAAAY4gwAAABDnAEAAGCIMwAAAAxxBgAAgCHOAAAAMMQZAAAAhjgDAADAEGcAAAAY4gwAAABDnAEAAGCIMwAAAAxxBgAAgCHOAAAAMMQZAAAAhjgDAADAEGcAAAAY4gwAAABDnAEAAGCIMwAAAAxxBgAAgCHOAAAAMMQZAAAAhjgDAADAEGcAAAAY4gwAAABDnAEAAGCIMwAAAAxxBgAAgCHOAAAAMMQZAAAAhjgDAADAEGcAAAAY4gwAAABDnAEAAGCIMwAAAAxxBgAAgCHOAAAAMMQZAAAAhjgDAADAEGcAAAAY4gwAAABDnAEAAGCIMwAAAAxxBgAAgCHOAAAAMMQZAAAAhjgDAADAEGcAAAAY4gwAAABDnAEAAGCIMwAAAAxxBgAAgCHOAAAAMMQZAAAARqOTI1SiIdvKAAAAAElFTkSuQmCC" vertex="1" parent="1">
          <mxGeometry x="40" y="40" width="600" height="400" as="geometry" />
        </mxCell>
      </root>
    </mxGraphModel>
  </diagram>
</mxfile>